<mxfile host="Electron" modified="2023-11-23T07:48:17.881Z" agent="Mozilla/5.0 (Windows NT 10.0; Win64; x64) AppleWebKit/537.36 (KHTML, like Gecko) draw.io/22.0.3 Chrome/114.0.5735.289 Electron/25.8.4 Safari/537.36" etag="Mwffw9hMTErTozLPG1DQ" version="22.0.3" type="device">
  <diagram name="Page-1" id="e4sED-w3bij3dEutvv0C">
    <mxGraphModel dx="2074" dy="1196" grid="1" gridSize="10" guides="1" tooltips="1" connect="1" arrows="1" fold="1" page="1" pageScale="1" pageWidth="1169" pageHeight="827" math="0" shadow="0">
      <root>
        <mxCell id="0" />
        <mxCell id="1" parent="0" />
        <mxCell id="hLcALraoGv34C8EPr2Re-4" style="edgeStyle=orthogonalEdgeStyle;rounded=0;orthogonalLoop=1;jettySize=auto;html=1;exitX=1;exitY=0.5;exitDx=0;exitDy=0;entryX=0;entryY=0.5;entryDx=0;entryDy=0;" edge="1" parent="1" source="hLcALraoGv34C8EPr2Re-1" target="hLcALraoGv34C8EPr2Re-2">
          <mxGeometry relative="1" as="geometry" />
        </mxCell>
        <mxCell id="hLcALraoGv34C8EPr2Re-1" value="Gateway" style="rounded=1;whiteSpace=wrap;html=1;" vertex="1" parent="1">
          <mxGeometry x="250" y="190" width="120" height="60" as="geometry" />
        </mxCell>
        <mxCell id="hLcALraoGv34C8EPr2Re-5" style="edgeStyle=orthogonalEdgeStyle;rounded=0;orthogonalLoop=1;jettySize=auto;html=1;exitX=1;exitY=0.75;exitDx=0;exitDy=0;entryX=0;entryY=0.75;entryDx=0;entryDy=0;" edge="1" parent="1" source="hLcALraoGv34C8EPr2Re-2" target="hLcALraoGv34C8EPr2Re-3">
          <mxGeometry relative="1" as="geometry" />
        </mxCell>
        <mxCell id="hLcALraoGv34C8EPr2Re-2" value="Server (MQTT Broker)" style="rounded=1;whiteSpace=wrap;html=1;" vertex="1" parent="1">
          <mxGeometry x="580" y="190" width="120" height="60" as="geometry" />
        </mxCell>
        <mxCell id="hLcALraoGv34C8EPr2Re-8" style="edgeStyle=orthogonalEdgeStyle;rounded=0;orthogonalLoop=1;jettySize=auto;html=1;exitX=0;exitY=0.25;exitDx=0;exitDy=0;entryX=1;entryY=0.25;entryDx=0;entryDy=0;" edge="1" parent="1" source="hLcALraoGv34C8EPr2Re-3" target="hLcALraoGv34C8EPr2Re-2">
          <mxGeometry relative="1" as="geometry" />
        </mxCell>
        <mxCell id="hLcALraoGv34C8EPr2Re-3" value="Laptop" style="rounded=1;whiteSpace=wrap;html=1;" vertex="1" parent="1">
          <mxGeometry x="940" y="190" width="120" height="60" as="geometry" />
        </mxCell>
        <mxCell id="hLcALraoGv34C8EPr2Re-6" value="Topic" style="text;html=1;strokeColor=none;fillColor=none;align=center;verticalAlign=middle;whiteSpace=wrap;rounded=0;" vertex="1" parent="1">
          <mxGeometry x="610" y="290" width="60" height="30" as="geometry" />
        </mxCell>
        <mxCell id="hLcALraoGv34C8EPr2Re-7" value="" style="shape=image;verticalLabelPosition=bottom;labelBackgroundColor=default;verticalAlign=top;aspect=fixed;imageAspect=0;image=data:image/png,iVBORw0KGgoAAAANSUhEUgAABZ8AAAJrCAYAAACP0O2EAAAAAXNSR0IArs4c6QAAAARnQU1BAACxjwv8YQUAAAAJcEhZcwAAEnQAABJ0Ad5mH3gAAKwhSURBVHhe7f1trHzZXR/49ot5wQtG8gwj4oQJeAgGJ/FA3BBI4saYJ9vcJh2LgYntqNuDhUPSPZrLRLgDtmk6jk3GcS6tcCduk3Qb9TgdYXdIcCD+zwwxxO0wbZJ/R+TKkmVPS3M10s19kK5k685r9j2/qv2rWrVq7Yeqs885dc75vPjonNp77bXW/u1d1Vrf/+4693zDN3xDBwAAAAAASxI+AwAAAACwOOEzAAAAAACLEz4DAAAAALC4e/6j/+g/6kr3fN9Pn3nXSr3vOvmu7/ru7j/8D/9DAAAAAACuwD3/yX/yn3Slex742909f+FDK/W+6yTC55e97GUAAAAAAFyBe/7QH/pDXemetz595qPdPW/7lZ3t102Ez//xf/wfAwAAAABwBfa+8/men/n8Rr3vOonw+eUvfzkAAAAAAFdA+AwAAAAAwOKEzwAAAADcKN/7vd8LHKD1PlqC8BkAAACAGyXCtFZeBOwTPh9B+AwAAABwOwmfYT7h8xGEzwAAAAC3k/AZ5hM+H0H4DAAAAHA7CZ9hPuHzEYTPAAAAALeT8BnmEz4fQfgMAAAAcDsJn2E+4fMRhM8AAAAAt5PwGeY7+fD5Va96VffX/tpf637wB3+wuf8qCJ8BAAAAbqfrFj6/9rWv7T7ykY90f/kv/+Xm/ssUc/n7f//vdz/90z/d3H8V/uJf/Ivd//g//o/d888/f5Df+Z3f6d773vc2+7yOfuqnfqr7n//n/3nnHD/5yU92P/IjP9JsP9fJh8+PPfZYd/fu3e5/+V/+l+7nfu7num/8xm9strtMwmcAAACA2+m6hc8PP/xw98ILL3T/5t/8m+4f/IN/0P3pP/2nm+0uQzmXf/gP/+EqjG61uyxveMMbuv/pf/qfuieffLL7m3/zbx7kF3/xF7tPf/rT3dvf/vZm39fNc8891/3jf/yPd84xQvmoTav9XNcifP7sZz/b/eqv/mr3r//1v+7+yT/5J1f+FLTwGQAAAOB2mhM+v+1tb1s9RfrhD3+4+9Zv/dbN9m/5lm/p7r///u6BBx6Y9MM//MM7xx4rAt9/8S/+RfcLv/AL3b/8l/+y++3f/u0rewq6nku4yqego84xn5hXa/+Y8xx7Cu67776d++2f/tN/2j399NOT277jO76j2d+QaxE+x2PecXI//uM/vrqoV/0UtPAZAAAA4HaaEz5HIBn5VTxIGSH0Qw89tNoe+VbkXPF/+U+JJ4SXCDYz8I2x40njeOI45nUVT0EPzeWqnoKOedzW8DmeaG7dd1Miq231N+Rahc/xOt4UUZzf+73fu7KnoIXPAAAAALfT3PA5gsn4Sob4OoPPfe5ze09BX5Yy8M1t8bRxPnn8X//X//VO+4s0NZdHH330Uh82vc3hc6hz1yFz27Vcu/A5nfcp6P/2v/1vN//q1BL9v/Od72zuEz4DAAAA3E6HhM+RZ0VmFdlVZFjlU9CXpRX4hvLJ42eeeeZSnoKeM5dnn322+57v+Z6d/Rcl5nFsgHyeY09Fmbt+7GMf65544onuZ37mZ1bf9RxfD5PbbmX4HM7zFPQjjzyy+kLxCJnrfX/lr/yV7s6dO6uf9b4gfAYAAAC4nQ4Nn3Nb5FaRX8VT0B/4wAc227/v+76v+5Vf+ZXV3zsrRRj7F//iX9y0O9ZQ4Jsu8ynoQ+ZyGU9BxzyEz+vcNZ7Qj5x1alurnzHXOnxOxz4F3Qqg4/dPfepTg8FzED4DAAAA3E7Hhs/x+6//+q+vwufIu3J7PGEaT5pG/lX69Kc/3f3ET/zEpt2xpgLfUD55HE+7XtRT0Kc0lxDziDq/+93vXv1+iJ/8yZ9cHXue8Dn+AOWb3vSmva9jiWwztscfBSy3h9gW/2BRbz+G8PnM3JOLGzP+AuOhhYgAOp5y/kt/6S+tguff/M3fbD4NXRI+AwAAANxOh4bPESTGk87x0GQ88Phf/Bf/RfOYizIn8A0xr3/+z//56qnjH/7hH262Oa9TmkuIeUSW2PrDenOc949CPvXUU6t+fu3Xfq179atfvdn+sz/7s6tveohwO/5xIre/9a1v7T772c+u9sVT4rn9WMLnM3NOLv4XhHiCOd7Ef+tv/a3uVa96VbPdkHjKOb5zZ+hrOGrCZwAAAIDb6ZDwOX7m086/9Eu/tHrStdX+Ik0FvjGnX/iFX9gJx+Mc4wHNCH/nZGVzHTKX8vuxIwCNh0dbTwKfR8wjr1Nr/5jzHJuEz+dz4eFzhMzxxo03cLyRf/RHf3SvzVxx8869gYXPAAAAALfT3PA5AtT46oh42DG/u3noKzZaLuNrNyJoznD87/ydv7MKfzN4zqd7lwyg587lwx/+8M5XUdzU8Dnq7Ws3jneh4fN5n3Y+D+EzAAAAwO00J3x+29vetnpyt37aOb6/+L3vfW/3N//m35z08z//86s/Ulj2e4xW4Nt62jm2Z/Acc/9H/+gfrX7GH0lcKoCemkv5tHPppobPV034fKY+uSWfdj6W8BkAAADgdpoTPp+SOvDNJ4zj+4rjgc4yHP/Lf/kvr8LmH/mRH9kEvm94wxu6Z599tnvf+963aXesoblMfS2J8PliCJ/PlCcX//IR/wIS/xISX9Qej6C3jrlowmcAAACA2+m6hs8RKOcTxv/sn/2zzdPOQy4i8G3Npfxaktp3fMd3rH6Wc4mvqBgKqQ91ngD5PMeeCuHzmTi5+CLtf/gP/+HmaedjTnRJwmcAAACA2+k84XNkWhHi5fcpj4knk5cINqOPGDNC3tbTzkMuKnzOuUw97fye97xnlQn+1E/91GYu/9V/9V9tvs6kdcyh4noIn6dD5RsfPscb7qqfdi4JnwEAAABup/OEzxG0xh8djBBvyg//8A/v/SG6Y/zkT/7kKnSe87Rz6SLC55zL2NPOKWr1kY98pPvd3/3d1dwj/Pyd3/md1XdUL/Fd2CG+gzue7v1X/+pfrfo/RATj8Uch4ynuVt/XQVyD3/7t316dS+scU1yD+DqWY+6Fkw+f4zue/9pf+2uL3VRLED4DAAAA3E7nCZ+vyute97qDv6riIsLncMhcMoD+N//m36weTo3geen6v/a1r+1+7ud+rvlHH8c8/vjj3Zve9KZmn9dJnEOcS+sc08/+7M+ugvrW8VNOPnw+RcJnAAAAgNvpOobPx3jiiSe6X/u1X+v+7J/9s839lyUC6L/39/5e90//6T+9NbW/SYTPRxA+AwAAANxOAlCYT/h8BOEzAAAAwO0kfIb5hM9HED4DAAAA3E7CZ5hP+HwE4TMAAADA7SR8hvmEz0cQPgMAAADcTsJnmE/4fAThMwAAAMDtJHyG+YTPRxA+AwAAANxOwmeYT/h8BOEzAAAAwO0UYRowX+t9tAThMwAAAAAAixM+AwAAAACwOOEzAAAAAACLEz4DAAAAALA44TMn6hXd6z/4Y93Dv5ze2L3+3la7i7Ad+833t/azT83mm3lv3//aos2ZR1+13+blr+refLbvwXe8orHvolzFmBfv3kfPavzBe7tXNvZxS9x7b/dg+Z6buh/yPeq+AQAAGCR85vStFvjC59O2XM1e+Y43nvXz2u7exr4bZ9a93ddW+HyhLiN8vvyA+2Zeq8sw61pdcvh8qz4bAQCAG0P4fHLWYcEmwIvF7REL29XCuexnZSAgrJ/22gnD6qc0GyIUy0X4oHOEx5cePl9Te9dx7boFT8LnmvD5Mgifhx3035N+zPIzaLt/5n9PGn3ULvr+u/xrNU34DAAAXEfC55MTi+5tGLVabJ4jfN4JrIpwMsOA9WJ2NzxoBw29c4dlRxA+z9Nf3/K65fW9TkGh8LkmfL4MlxE2Xn6gucy1mvvfk/X9vDve6GfQzM/2q/hMuPxrNe1WfTYCAAA3hvD51KwW9NvF5WoBfHCIuw6rHnzHvd2bi75i4brelmFB/3TZXv992NVaeJ9k+Nyfx0a77SZAqW3m2c97s2/8PDNUSVcexjXC501t9q7lvHNdtGZFWLVWhij1NazVgcv0uNugpmp7nkCpD9c2Gvf4Xs3G3gfnfj9tw8Xd+7Gu15m9+g+PO35vb8fcbGsFkUXbbV9T5zqmvub777nN52V1rrtzWqvPceXIe2Ovr/Ja7dW9Uo9Z32ND937jPLMezXMr1HUbtx5v+r8n/bwaNVy/Jxr35Kz7P8+ncfzB6ntoeOzVnIfuhxmfA6m+FnXtV/tX4+y+V7btDv1sBAAAOC3C51MxFVCcmR8YZFjwitUCen1cLGBjkbrdN7bwXy+YG/vOHZYdYWzMPgQoa5OL/TJw2gs/GsftGD3PDDB297/yHa+dqMsF6++hZvi3cy32t7Wu96I16+e2c2xsa9wj67mMBSrz5p/3we6cW/WYZ12Pqr5n51y+jjF39uf7emi80fssjb2f1ufz4AfPznUTlPXtd4Kzs3ZVkLY+n3rsOfd2P2bWNM9xL6hr1Xp/HnPd+2g118b9mNeovH9m3du57Yi5Dd17u+/Dtckx9t4TeT3Kuea2UIzb16P1/h98z86yHi/6iPmv+4p+Y07bfXkftM67PbfcXl3XhnWNxz4TZmjep2fzf7R9PebdD/21GHh/791n/RzK67E+tznXcqE6AAAAXDLh86mJRedmwVss7Ot2o4rjsr/4uVogb/ftLYxLA4vfeWHB+IL8YINjDo3Tb9/UsRXA1G0qY+c5qwZXoBH+rK/x7rZ2gFHX8upqNhWwzJv/NtSp7+F5oVJlLFibMP0+m6rL/rltra/T3vms+p2YbyMImzef8t4YGD+co2bz7N+P61pX86/nMTCvo+6LM4ccd9QYe9eyP++9e6r1nm1tO9R6vFUfMZeYf/xc3Y/bfev328C907rXwqz7bZnQ9dDaz2s/8t4cuM/qc2l/TrWv2xJ1AAAAuGzC5xOzWlxuFrzrBWi9eJ1WHheL4zd2D54tkLev14va1eJ6NBRrjD0rLBhZkB9jaMyhQOPMziK92W5ijiPneVSAdBn684zrtlVf3+Hz3jmvhWu2ndt5g6aZ8z+z7md6vDnOE/qMHnvu99NAuDjy3tjaP3bevZ3Hrb9yYbj9ul3zc2Qh9Xyb8+9rkXMYuh7zzn3fur95xx41RjX/zf0wq5+B++Mg6z62//1o//dk9P02dD/Ouv/P9/5bO7wO867V8HtzcM7VObfbted7/joAAABcPuHziVktLjcL2XLRf4jd41Z9bhbR28XyanE9tPBfLZAbY587LDvC0Jh7oczWepG+PWZ9rsWifej8dva3znPhczuzntuuo8KiZshW97W+N+rxNoqwZbmapXrsdogyHrDMn399D5zHvCAqDM1v4HwmaxbG7rn1ePv3y/72vB9q2zZz7+3qHEfb931u2p/jevT397avXn3P1tep+b7Yvx7zr3FD/97YGKjJnDHW77t92/ddX9MD7sejPk821n3s1G8z9vaeyfur+flw1eHzyH8rhsy7H4bfM0PXcW17zu1za1+3c9cBAADgCgifT8T4QjUcsuDcDQt21WFBe+E/uO/cYdkRhsYcCRR2F+n9fHbqORFEjJznvFDiCuzVI8+7vHfmXptla7Zn1Tb63L+vxwOW+ffW2P19qPE5pT6Ure6N0WPP/X4aCBebgWt9/faPnXdvF8fldZzzXu/ndNQ1yWOrcer5NuffrMX+9Vjqfb3qZ6AmU2Osj63qM/S+njXXgfvjIOs+2u/94t7s74Vmu6F9s+7/ue+/MYfXYd79MPzenDvndrv2fM9fBwAAgMsnfD4p64XsZsG5WpgfsdDcCytKxWK5b7e/IF8vfFsL6nlhwfCC/CiDYw6NU22fGXDsGDlmHQAc2N9laF331XnsXuNZocrCNWsaaj/Rz7xQaOHr1Nex/Z7qDbQZDYxm1Wzs/TQWUmW//fF7Nds/dl7Ndo9bH9P6HGkY/WwaNjSv+l5o3hv1mK2a923m3FdzDN2jo/fC0OfuXs2GrmfL2L0z0+g1K/sf+u/GyHxn3f9TdZvjkJqtzfucGanvuc6t/b6e2ycAAMApET6flPVCdickOWCxvDER8JSL6tXvVdv1toEF7qzF78iC/BhjY6727c5/L6iaqEfT6Hn2IUsVGLzyHa+dqMsFa55nfy3KufbtRq/PwjWLa1L3tb7PGoHS1PzmzP/M3n1wLlnHqr+zc96cV2Ne+f4aDM5G77M09n5qhFT9PMpte+/pnGt97Kx7e3/M1udInFsdnh19TVZ1KsfM63Gm+IxczaP+zOzPdTu3/hw39ezP54Nnczv48zbmUV/buv/C3nmUGu/Vvv1ubft2M+e6d+0PtVe/XWXN19d39/xyW/P4Wfd/9jHwHpora7lzXc5q+Wi7js17aU9/LZrvzcb1bGif2/57bKXxGQMAAHDqhM8nZb3gzEX6alF6cBhy5oCwIF5nOLA1slieFRaMLchnKsKxPXVNioBmbX/+++fYK/s6ZMxNsLDVDpQu0dB17+uzO78+IKuUxy5ds3UINrx/x+Q1nTv/c4RuDXvnUN/j1byj5ut5FPOfWbO9sQrlebba7b/36/s15jMQcE3e263jtseU2w/6bJlQ9xXnWH+W1a9XWu+LnWuwvkdW/Y/dk4P278X9mm7t1WRnzKqv2Lc3/77Ws+d6zs+qVv0KezXfe++OvAdXbS8pfA57773dsffv162yZnPfm4Nti8+N9rkNvTfPTH42AgAAnBbhM70+9LiBT1RloLAXnmQQ4SmyPWoGHO/QgBwAAICbSvjMxjpwLJ4EiyesbkDIuH7yrPV02M0N3M9LzYBz6Z/Q3fwDVvzDlTAaAADg1hE+s2P3fxGe/t+hr4Ohp3jzXPee7kXNgHPLz5HkcwMAAOD2ET5zK9QhyJrvyhyjZgAAAACch/AZAAAAAIDFCZ8BAAAAAFic8BkAAAAAgMUJnwEAAAAAWJzwGQAAAACAxQmfAQAAAABYnPAZAAAAAIDFCZ/hOnjPL3YP/N6vb/3qj7fbrXxP922/tW73Xe9p7T8FX9N96Qv3dF96X2vfhLc/333opT/onkovPt+9ptUufeCL89qdqiPmf/+dc57va97Qffbv/kz3b9/3hu4trf1csO/qnov6/923du9t7X/oZd1XvvBV3WcfauwDTtor3/HG7uFffm13b2PfsFd0r//gj50d92Pdm+9v7T9h997bPXg274c/eG/3ytb+G2J9XX+se/Adr2juBwC4zYTPN9ysEKoP8979gca+W+ibf/XXuwd+693dNzT2bbz13d33XUm42wfLJxY+z6rZxtd2n/3cPV33uZd1jzf3zzfr/r7k8Pk1z3z5bLwvdvc39h1F+HwLTYTPZ579jbP30Be+unu2sY8bqg/xrl34yI5TD5+Pm9+Iyw6fZ75P7n102TkJnwEAhgmfbzjh8+GuInz+hv/+f9h9svn3frH75ka7eeHz5TskfF4yNDt3yHoBFg+fj3D+uvTh5099V2Nf+Jbul98X4WhhNKjOMPVnus8++C2b7W958K/u9lF57k11Py/v3vtT021WMkAfaVOPX87t5W96686+lfocizGaNvXbnv/WX+1++TVFXzv6+o7WdLl/xLn+XtW9uQyb7n/t+UKlDMsKJxH43vDweRUG7p3fUOi6vubta7Q9ZtCjr2r2UbuIIHHxcHdhy8+vr/Oq5q39C7ui8Hn1uTNjXACA20j4fMMJnw93ueFzPqX8P3Tf9tZy+49339UMmK95+Lz6uoAjv26jQfjcdrHhc2tfv20gLC0D452Ad8A6FK6e+s2gdzAQL+2G4/vh8/h82w44pp/rYDB+Zl2ToQB6Tvh8pn8/feXpr23vvzUi3Hpj9/p7169X4dmRodLQ04v3PnoCYeEtCZ93QsriHwI2592HfOU1Gn3qdNV+e38MuaxQ+LLGOdby8xM+AwDcdsLnU7EKgL/cvfPtz3bvjv/FfvV7HyI1/pf7dcDV70vZpv5O3FrfbtP3gP0w+vHunS+WbdZz3G1ziVYBcIS2P9591+pp4XWAuwpC43UVhu4/XVy06cPkvf2pb7fpe8ChYfR6TnXwPGYsfN5+3cbaWL9Tbdc1jfPZrVvxRPbMmm377J96nnxSc/59Nhqy5tdVpDvP7rfp1e+nDz3z+P7+1Tj5/qzb7W7fd0QYfY75rwzV5bxWTwTvh6bNwDhsgth1eDsdPrfC7T6MnRU8n8k5vqkdAq+C34OC57XBc6ysg+WJdjMC6jmm/0+Ct3Qf+e273d27H+/e09x/A6zCpm1YtgqVjgm6+tBq6mnXbThXPWHbCrL6QGqjNa8iYF3bDUo3oeyAOuzKIDad5+ndvbGr+a/GWp337lPEh4+5ruWD77j3rJ/ttYz+19vyPPuaN2q9nmsjNL3k8Lmuf7Nmq3HGa9a+7u3zqMccrP/g/bg7l33nr0tLvlc384/5tP7BYaU9x2wz632y916rHPseBgBglPD5VPTh84dejKBtHb7F76vAaRVCbQO4dWi8G2YNhXCj4Vya8+RzBto7fZ3N884FBVxz9OHz9/1WBKfrMDV+XwWzqz/Qtw1U16Hx7ldZDD2tO+sp3kWefO4D4KmxdoyFz4Xq/Hf1YX3Rx34InoF+2W54vrNq1v+RwdGnNA+8z2bd3xlmD4S3e++nfg5lAL0Nd4sgvA+H6/fNuu2STz4fOP/cNlmXI/VfRzEv0C1D43nh8zrgrcLtgcC7rRinFfCeI/SdFT73/U+G7AuFzy9/31d33dj/TfC2j3SfuRvh893u4+9t7L/OpoKkM4eEoOsAbG5IWfe//3Tnfn/7bVbbqsBrHaI15tGfbx02l/YC2P6Yw8Pg9fx3xsp6751jNd+jngDN8PkVq3NYzzfqFeey3Tdag6FxLy18zn+MKPvor3lxjVfjfPCNu+cxp2YD5zH3mmc4uzPGWZ/1mOevw3yrOUUt4p7qz+/Bs9evv7evZd5rrXMauhfG7pHCeuxG2FyYWzMAAMYJn09Fhm6rgKkPmzJQKkOugaB4KGyaFUIN9FlaLsz6+e7XP//57vNDPvnzjWMG5JO3q3A0n+TtA+ZV+NqHwwNB8ZWHz30f3/fff097f9P5w+d10Fx/p3Tdbx8+V3VoHzuzZquQ7Ku6zz7U2Nc79D6b134kvB249+sAOcPn3Xbrp52bT0lfVvg86/Pgbd3Tv9t4r6Xffbp7W3HsHPk1GhmwDn2FxG5YOyd8bj31XPRTfw9z4+nlnRC8FfBWT0Vv+1smVJ711PPcr9WYZeofdW7Bk88RWm1CpCKorNuN6sOuiTAqZOBaB1C7YdY6dNybx0CAuGMgPJwM1Qb2LxkmrsO4bV/tWgyc+6jiuuX1jJ+r8HG7bz3eQP2G6jan5mfOXaehcVbbtzVq12zG/dfqf+41n7p3CueuwwHW91N/Tn2d1tdvtx7NoHjonGaea7PP0gE1AwBgnPD5VOyESH3YlOFRET4PBVtDIdyscG4yfG6HbFduJwCunsotwudDA9ObHT4PH7973uvwuZ7becLnx5/+qomvBzj8Pjtv+DwYFFf/t0G73dWHz4d+HixqJwhuha112DwdPjefej6TYfduKN0H1WWAW4fNjfB5PUZ13OY7oqvz6I/fnOfU136MBtQ5RpoKqOfq//Dgb3xNY9/tsArLNiHSOvg8PDA6NHyeCDOHgshZgdZAeDtx7GBoODSXI9RjtMc8Jnwur1tci3gCtnx9+uFzHcxv7dZjaJzh43uN8xicc9X2kHM7bx0OsRMAr+a8e83X+w58P8wMjafC58usAwDATSd8PhWnHD5PhtNXRPg8bDB8Lr5Oo+Uqw+cj7rPzhs+r48/GbBM+D8kweB3qbkPVMnTdeQJ5ZSp8bj/1HAafJt75Oo7yKz76/YPhc+MrPBpta+t5NI7d2T8zVO7D+7Ewfh7h8yok2nwVRBliHmLZ8HndJsLEtnJ+Q21nh229dXg5ZDp83beu5X5f20CuHdANhIWjdq/bqt/Nteivzdk1zlo1a3AK4XPz/unr2N+jQ+NMjt84j7nXfCpoLZ23DofYmdeJhc+H1AwAgHHC51NxyuHzok8+L/+1G9c2fB74aotxF/fk865b/uRz5XqHz8t+7UY+OVyHtDvB7E4onMbD58FQeLNvPHxutmkFys25nZkRPo+ew+hTz237Af0xbm/4PB68hcMCtHV/c0PKiXYHBZ51UHZg2NZbNjTsA9MqfKvHaI85MP9R62Pa57YNn3cDysrQvoOuxfH1Gw4rd+sxNM5k2Nk4j7lzPuTczluHQ+yc88718+QzAMBNInw+FTPD5/rrAMpjWyHcvCBsKvSr5nMqZobPzSC2P7YVmA4FrLva4WzLez6x/mNfn/nwW/b2rULbge9mbjtv+DwzXD8wfJ5Vs8nvfD78Pjtv+Nx8PzUcEj7P7XO+A+c/8nmwhKGnf8tQet1m3G5IO/zU88pAYLwNnOuvtGhbBctDIfNQKL1jOHw+6Knn3jLh8/Qf8szPoBv3BwdX1iHVJphaBVhHBkZ9+DUVmq5DqYkwc1YAVgZs5fah8HYi1J0Zss6yEwRu1YFcO6CbmGfLaL2K8Lnve/uke9WmFSbOrMu5w8ahcartYzXbP69Cq/+Z57ZuNx3IrsztcwHzwufy+lfHNs9p3v03eb0PqRkAAKOEz6dibvjcB17bIKoPwF78cjts6o8df5q0H28spO772Q3Azo67czEB1yxzw+d8wngT2PbB6m/9D+0Qtj92PFjux5sMqd/TffzuOvi5+9sfaYRM/dz2guKz7c2A+fzh8yZ4H+3jsPB5Xs2mQ7JD77Nzh89z7v0zB4XPGf42xzvG2PwP/DxYwiqk/Zn29y+Phq/Dwe3YU89rfbjc+H7n0SeNB4Lm/aB4IvxeyYC7cY5HPPVchvWt/bOt/lHnnu5L72vsW5n6DLru1sHUJiCKwGjkacYpGWjVwdW9j9aB63Q4t+5rvN1emz6Ebc1hE8gNBmZT+w+Q8ygCv6xN2f/lhM/92P11XY+5239uax4/M0ydDCMnlYFpbtsPlVvjrGs7MXbzPOZe82xXHX/W517NGtf+opTXdTfs3a3lumbbua9ex/eCN6/5zJr04w3fpwfUDACAUcLnUzE7fN62XYV0/VOPYyHcOjjL9kPt+hCrsBkv7Ywblny68wizw+dt29iWoezYE8DrkDXbD7XL4HhrM15h7MnntH4CurQb8O7v32qfY2Vv/vtzD9v5Hxg+b/YV/TVq9uxv3NN1n3tZ93i1fcfEfbZ3PxfKIHj1nmi0CfW93WxbhL0Hhc8hQ/SN8XC7Zfb8G58Hq/leVPgcMoAuTT7BOxQ+98Hv5PH7TzdPBrdDTzmfqZ/OrueV4fBYm7TuayQ87+ex09+5n3hem/OeesuHP7MOn+9+vHtPY//1tg73Mgxah1LHh88rfShVKsOmOggbs26729fu/DLgShGYjYW3fZhZqIOwbUhcOCZIrOoQ81mfzzbUq1+vXWz4vNq2d41Grseq7fT1ap/Loerr2ahD8Q8MG3Pu2ZHzmHvN99oN3Rd79T1vXdrmhs+btjmfmPfoPTP9Pgl778/GdZhdMwAABgmfb4h5T4BSmvf1EyzqoZd1X5l6+hmYp38/DT/13HvbR7rPRPj8ife098O1tB9Q3mgzQ/RbY+IfLAAAOB3C5xtC+Hw44fPVWD2pOfrdz8C0/g8NTv2fBGfW//fFZ7qPvK29H66tnadlz0QgeUPD6PUTuBfzBPK1JHwGALg2hM83hPD5cMLnq9KHZl/46u7Z5n5gyvofccbfQ5uv27iR3/UMa/VXJ9yMMPJV3ZvLr3fog9aDvsrkphM+AwBcG8LnG0L4fDjh81Va//HBya8LuGHGvsd564q/S53Tt/q6Df/3ANxo1fcuC54rwmcAgGtD+AwAAAAAwOKEzwAAAAAALE74DAAAAADA4oTPAAAAAAAsTvgMAAAAAMDihM8AAAAAACxO+Mzy7r23e/CXf6x7+Jdf293b2n+q+nm/+f7Gvit276Nn9fzgvd0rG/tujld1bz6r/4PveEVj3y10/2vP3kPxPuo9+qpmu9W9UbRr3b+vfMcbz/Zd8vtxNf83dq+/t7HvXF7Rvf6Du+d8fe6Z7dxP8XPmOrrSz8b8b92N/2xewMzPs7UTfp+45gAAcDDhM8s70fB5MoATPl+syfoKn9v6IGY0rDkzUt+bEz5nKHXNPls2rnf4fBWfQ1Nj3qbwee59dtr/vZjzeXb575PZNbvkaw4AADeB8PnkrAO4zYIrApxzLXLW/cUi7raHesLnKyZ8PpLweaM/x1O7R66kvlfgKj6Hpsa82s/G/r+vU+/Nhdye8Pnyza/Z5V5zAAC4CYTPJycWNtvAZrXYPM8ichUAvbZ7/Xn7uQGEz1dM+Hwk4fPGib5Hhc8XZ2rMq/1sFD4fTvgMAAC3jfD51KzCle3icrUgOsciZ3P8qt+BIKgPdFbfw7jSXtyuF75Fu3pedT9jC7lVMFW03ejHLua7Oofcf/CCul8oDirOtZ9/BFvTY9b9TgcCg/bqv3+dNgvjqm0rhNuZ+5mdMLc/vhXwrq9vNXZ9nY64F+v51LbnsA2fd++1qrZFqLnbd+sazLtO9b19vgB8+7+Mr7Xed3WbsTGXDJ9369Ecc++9OXRvT9S2ET5v6zzU54SRcwyb90m5fe+Y9bzj9eh9lgbfA/X518r+5twTveo9vj+vQ+Zfz3Fk3CF786nsfT5e7piHfDYu8Xk2z/p6x/srP6NW77XN+HVN2vfS+hxm3mcHX6eFP/dm13bs8+yA98lk2xnvkyNqBgAAHE74fCqmFkFnDl8Ybhdf5WJ4p00/7s722FYtDNeLt93FXWxrLvDPNEOg1C9St8f2i+uyfVGP7dz6dkcGButzaAU0vfIabMZYj7lXn2rbOmAY6XvQWf9VndZ97dZ6Xc83no273b5/TUbquDmffsG+d232A4HB/o+sf85l6J7Z9L9zDvvz2gk5xs5r5nXa29Y4bras9059z+b26G6973109/rmObXHbNSgZaS+q2u5un+K/XvvwzPRx844/dj1vZ3XYKft2fXbu071/XpMXYv7omk7t/X7pLq39+pS9Dd2/5xZ3xtVjc7Oq67x5GdLqapLKWtU9r+eQ+N9ODn/vl19jer6HKBZ31J/X5TXuHVOh5gaM6/R/r22ez3W2xp13KnPUtbX48F4z53VYjX26v0Xc1qPu6lR6/Nm4L3cOq+Wyeu0eV/v3oevfMdrm/fllLwGU++TtX7sqbqPvE9a127w+u60a7/Pw3TNAACAYwmfT00suDYLoH4Be3BY01st3iaCmdEF3tahC7Ox9q19ewvHfvFdL1DPs0CcXLjPHLM9hypQOI9GGLEac+867S7Ah86vru3+Iv3MXtgxcD4z75emgUBlqz+f5r1RnNdqDvtzq9vNuk4Dcxqq5ZTj78/hUGR2WDNS3/X51PvGxiz09d4eO3M+5b0ycM0ONnEPNes/cG/X7fau+eT9unXQ/TL4Hhp4z+V8N/Vefv5zjd/fQ/fFzPtswNR7arX/Kj7PRvXn3F+P3fff7vWcd8+uzb3Ppmq26HkffJ8d8flR7WvXoe535vukN1kzAADgaMLnE7NaGG0WQOvF07HhwWoxVS7wWou5fuE4tRDNxfPcxdnwQq4dROwtCAcWtOdZIA4tOjdmjTkQYsxdUM+yP0b7vMtatuu6snde+/3v1WZo4X9w0FCYPLZd2/bcpuYw7zoN3hNHhTNDY84z+Z6ZurdG6jt0nqsxx94Toe537j2QNXzH+nodW5cdE2M3a7h3zLz7bPDeaDik7eC9NXJfz/kM2p/Dut30e2W+4Xv0TF/n1nU+qD6V0THPzLrmQzWfey8frPU5k+P312W1b+AzY2Bec+t4VM2OdPi1nfl5NvgZPHz87nnNfZ+sLVkTAABgl/D5xKwWRptF1XrxdNzCuLXwKhe9+21X4fLKwEKyD0c2RhaPowu5vZClMa+Bxfd5FoiTi+Q5Y/ZtdupQGqnJkPW89vsqr93QeW+3jyzo+zkP97c+ttw/NKd01D05UN+t1j3buG4jId3GzOu0qkNr/0or+BgxeX6Fofk17+2ZYc3I+EP3fmv7UE02/Q6GQpXq82JWXaZM1Lj5Ptk7Zt591uxrwFB9m4bqN1LX9TXJ/me+T1b6e+es/dqB93RltCaT999xY09dhznXfD1+1mDfIvfmjt337O75l/+9a1/LoVrOvc/Gazbz82Smqeuzb+b4g++Hvn5DNnM55H1yzHkAAABzCZ9PxGrhUy+idswMNlIV/Owa6Wtz3Ph4m/kOLCDHFnLNIKDuZ2DxfZ4F4uTCfdaYA2HBkbIWu2Puj9E+73IRP7Kgb51XubBf7a8W+SNB2NEG6rs1Myzo79HhfsK86zR5Txxk5r3R16G+VsP39sywZqS+Q+dZj7l6XV/3ut/J69gr7qF1vzOOmTIxdrOGe8fMu88OuTcOuo+G3lsj77nd85r5Pqn1dTjP+7pZ3zRybQ6qT2V0zDOzrvlFfJ6N2n3Prs8/x19fv/W+gc+MgVrOreNRNTvS4df2vOHzzOMPfJ8sWRMAAGCX8PmkrBdVm8XSavG18IJ91edweLMyc6E+tlgb3jew2K4NLL7PtUCcOq9ZY85d+M7R97V3Pvs1ap53P99sN7Sobm/f3mur/QN9j94nB5u69jPDgjn38NzrNPNen2foeu5an8/+mMP39sxzGblm7XtgXe9tv/Xr3l6/A+1qO7Xtz+G8tZ64L1s1XJ/7/vyXuc96h9xHg23b89rfPnP+Led8X4+PMXSfzrx/B0yd19hn4+Y8z3neh9s95/U55DUv3z/t2qzOqTXfmffZVM1253NOh7xPVmbeDyPnOvxZWTrsfTJVMwAA4HjC55OyXpRtFnGx+JpcYLUMhRjbfeWiuF40rhe+5SIs5lUvynb7qQ0vDmcuPAfCgnmLzgF9n4Njzx2zX2y363uYda2LBXbOsep//7z7Ou5sa1yTvr/WXFeL7bPr+ubynivsze3c+jkPLvBnhgVzw45Z12lqTgfqx9y9x87GeHTs/sk5nLmA90xoBSvr61tua9Qiz6fqd91fXduz61fOcXVsef/09+d5aj1yjmE9r+2YOc/d+c+8zzb1qN4DZ+e1N36+b6euUdiry1Y9/7B/nea/T9pt2mPP0t8Pdb/1/v175eLG3P9sPNO4T5b/PBuz+57drUH/Pmju619/8I3t+3zufTZ1nQbei698x2uPqM8B75OVmZ9nq3MYuF6z6jD3fd6brBkAAHAs4fNJWS+WcsG2XoS2wqgJY4u2M3WYsX5daI6Zi9Wt9qJut03aaZsLxz3FnBvhQWgGDYfoF5hbxSL0kDGb5zBc82G5cE8xn8aieW/eZ5oL7/3r1A4AzmzOobEQ7zWv6XnqPzq/xnmf2QsL+loMnldp5nXaew+EqXBkyN6Y++PVdY1zqe+z5px6dc1abVr39s7+Oe/zaNMfu1fvsffSZn917pt5HPNeOTM0l8JO3VbnuD6numaT91lv7zoM3RczPlt29/eq67D3ntu7TvPnv9dX4/wONTm/qfviCGNj1u+blYH7ZL8ejWMXMT98Djv3WGwfu89n1nfyOu39t2f/njrE1Ptkb39hc54HvE82dawc+z7f7iv6u5B7AwAAbh/hM5crF5d7AU4uhM8fVADAtTUWPgMAAFwzwmcuV//UVmtRvX4ySvgMwC0mfAYAAG4Q4TOXa+jJ5/xfifeeiAaAW0T4DAAA3CDCZy5fBtAVC20Abj3hMwAAcIMInwEAAAAAWJzwGQAAAACAxQmfAQAAAABYnPAZAAAAAIDFCZ8BAAAAAFic8BkAAAAAgMUJnwEAAAAAWJzwGQAAAACAxQmfb7j77/xB99SLz3evaezbePvz3Yde+oPu3R9o7OPamXXNuVEefOap7qWXPti9v7HvOnjNM1/unnrpi939jX0l9zYAAABcL8LnG074fPsI6G4f4TMAAABwioTPN5zw+fYR0N0+wmcAAADgFAmfT8UqAP5y9863P9u9+6U/6J5a/d6HLfG6ClzWYU2/L2WbPkze25/6dpu+B+yH0Y9373yxbLOe426bmfbmWAVPm3pU8zxX8DRv/nVdPvTM4/v77zy7dw679Vpfx9i2e61aAdv8utbXfTO3mde87u9Svf3R7vdf+kT30kYdlj7Ufeps+6fOarYOU4faHWa3r090v//M6/bavP/Odn+rzaqPFx/tHuzn2G532PznzGu83e5c9jXGfdtHus/cvdvd/cR7drfPtr5X477L98nqHvzAF/t7rb538/Ns1/q90t631b9Xjri3B98nB6vnuP/enPd5MMPmM2/efwO2Ne/FHMr9vanPs5W9Grf/IaDuqznm4PWaujem//Hhskx9Hqz233no7Fx3P9PivV+2m7Q6/qnuY2/P93L8Xoy/+swp2n/gg5uxVmIO5f7e1PxXJj+P1+q+mmPu9ZXW57NtW39mne+zHQAAuB6Ez6eiDx4+9GIs0PuA5+z31eJ+FTJsF+7rAGB3ob7a1ghhhrbv6MOC0bAkA4Wdvs7meWei74YMhsrx1udUhBNFgLENS/qwYiBkGTVr/n3/ZZs8rhhzG8Bsr8H6nMpwpQhWNsf2IfPOHPbPab+v0B9bbX/NM1+s2s285pcsA9QynFmHGmU4UQQTm4Djdd3HXjx7XYcws/THVgHIg898cH/Msv8MUoqQZRsAF331QdD2nObPf33uRfDSj7kbEs2Zf26L+U0HOW/58Ge6uxE+3/14957G/mnbz6Z4X67u1fh99V5Y38ub92v/3tkJO/tt9WfN+p6fDh+n7+3575NJfbhbzn/4syuMfR7MsKrNvP8G7Pff/mxcz63+b0U1r6HrVPUVY+5ct/64nTH3+srrUV3bxpituV6+eZ8H20B2+55bvwfrsHXCqu+nut9/MY5bv9/j99VYq8+XbX/7/fdzLeYV9j5bVtuqebU+b2Jb1VeMuROoN2qx31d+blWfR40xW3MFAABuHuHzqdhZyFcL9j4EWS38+3Z1eDMUykyHNWcG+izN6meWKqCqtm+CjJ16bNsdO485xw0FYHXQs+qrDpb2atifTzVmPUZ7zP76l+dehU9jFrlWf+PXu89//vODfv1vNI4ZtA5J9p++q8OTRvBzZm6wuqcKb1qG+q6DnvXr+snG+rxmzr8PYeqnJPfazZh/GjqPPQs9+Zz37Pr+zft+9z3cvA8HPmuG3nu1yXv7gPfJuMZ7sNxezGHe58EMO595I/8NGPoM3Tv3oXOonKNm63Of+Dzbmfta+zoO/bdhzNu6p3+3/Rm18rtPd29rHtc29D5ab9++F/f/4ezMwPt61E6YW4W2O/+4NfAZuvcZ0fdRhch7DvhsqdWBcbNmO3NfWx1XfTYOnhcAAHCjCJ9PxU5YUQUcxeJ9KKQZCmUmw5owGZQcEwoMaAQRaWeuA3OadT575sx/P1TaqObSnMPefNtj7l6/4XCoHuOQ8z6uRheoEUSk3UCiHUTMDlYr7bCj1Ac1rTZVkNSeQzt8npr/4PlUgdD0/LeOrdHhdu/Z9f2cweX6nl/vG3jPDbyvlwqfF7v3+3m2PjPquTbHHDjPUTvHDP83YDAsboy5mtvZttEAuj/umAC6WYv6Ou7Nd+jzePjz8HLM/zxovjfPET6vj6nGLz83h8LixpiruZ1tGw2g++OOCaDrz5r1eNVnz958h0LmmWE5AABwrQmfT8XM4GEopBkKXWaFMVNBydT+QwwFJ2d2gouBMWedT23W/EeCj/74DEuac9gbY0743Id1QzZjHBbKHFWjizQUnJzZDS6WDJ/nhBojbfpwJufSnsNx4fMmHGrKOh0Wygifw4Lh5chnxu45z/08mGHnmKn/BpztG9Cu7XZ/K1Df/yxqXYuhz6uibX8O2zGq8yja7PfTW+L6HWX+58Flh8/r93d8PrTVY9bt68+ktfXn1bZd6/OjbtNoW9Vm7zyKNvv99ITPAABwowmfT8VBwcN+MDAUyswKIieDkoEg6RhT4XPOdWBOs85nz5z5jwRX1VzmhU3tMXev3/yw7JDzPq5GlSW/dmMqfN6EFEuGzwMB0Y7psClDnfYcjguf557P9Py3jq3R4Xbv2d0gtg8nV/sG3nMD7+uhz7Xa1L29yL0fRj4T67nO+zyYYeeY4f8GjH2Gjuv7POtn9LOwH2v3evTXtjrPveu2Obawdz3mfB7PteTXbsz/PLjs8HnsM3Rc32fjc2lHP9buZ0gfPFfnufdZszm2sPe51f5sBAAAbgfh86k4T/DQH7u/yJ8b6kyFAdV8puT3yjb/qNnQWNX2gfDmuHBp3vyHanVc2NQ+z1l9NayPmxc4zbvml2koeDguvJ1rfdx4YDPUd7293e7I+c8MkubMf2N2OPWe7uML/MHB6fB5t11a3e+N9/XcQHXq3j7kfRLe84moxd3uMx9+S7WvPf/W9ksPn4/pe2PovCr19SjHL9rtXo+Zfc9ud/nmfh5cevh8TN8bI6F6qf4MKccv2u3WYmbfs9sBAAA3kfD5VMwNHnYCnu3rD7345XaI2R87/pRZP95YYNn3sxsYnB13Z3/Mt3z4M6tAJ3z8vbv7QisgWodSxfgDAcvcsHbPrPnXtT3Tz6Os37ywaV74nMdNBzH93Kpr9JpnvrgftM265perFaSuApydoGfZ8Dn7q4998JkPFvPo25ShSB/0lPNoz+HI8HnzNOLUOc2Zf6+f82S4896Pb96b+4HrHLvB4e57eff9U7/PV6/PPqda7+vZ74PJe/uA98kmiD/z2x/p3rKz70w/VjnXwc+uyc+DGXaOGftvQH5e7s5j31ktBuZV1i/OqZ7n0OdxeX3WbXbbNWvRcoKfUWvzPg8uPXw+e73+vJz6B6az+Q/Mq/48q+e593nc+ExZt9lt16xFS38+9ecjAABw8wmfT8UBwcMmCFhZBxBji/51YJLth9plaLNVBxK744aB8GP0yee1yTnt1GNrdrjRMmv+03VozmFvvut+JsPnlf0xW+Nu7ouizVB4M++aX651CJvhRSuwmBveHiKD3q398CND3q3xp/1SPd/D5r8Ncgp74fGc+ff6cGerVbO3dB/57T5w/cR7qn1zzA+fwzag7LcPvK9X+s+5rfp9sjZ9b89/nww/+dybMad5nwcz7Bwz8d+AM3t1CAPzKNu05rRznULr86KqRdR0//Os/VkW9sZtzG06UL8M058HzcD1gsPnsPcZGgbmUbZpzWnv86cVIFefKfHZs/95tl+vtDduY26z/+8OAADg2hI+3xDnCmWBWyP/z4TW/5Vw4Y4JZbkm+uC58d+hdbh9CsEyy+qD50ZwvQ63BcsAAIDw+cYQPgPT+q+aaH3NxGUQPt9c/bVtPWW++4Q8N0b/JHPr/8ZYPyEtfAYAAITPN4bwGRi2/bqN477reSHC5xts4Mnn/HoN/326gQaefM6v12h9lQcAAHDrCJ9viNsXPg9/t+gOgccNMvzdojsEHqfrFobP66+cmHJTngpufy4Pfef2TdX8Pvc9N+Wp4Pbn8uB30wMAALeO8BkAAAAAgMUJnwEAAAAAWJzwGQAAAACAxQmfAQAAAABYnPAZAAAAAIDFCZ8BAAAAAFic8BkAAAAAgMUJn+FA99/5g+6pF5/vXtPYdxoe79754tkcX/qD7t0f2N//mme+fLbvi9391XYuydsf7X7/pU90n2pcm5PxgQ92L53N8aUXH+0erPddh/kDAAAAJ0H4fMPNCkrf/nz3oYGgkn3CZ85F+AwAAADcEsLnG074vLzTD5/HCZ+v2HUPb4XPAAAAwEzC5xtO+Lw84TPnInwGAAAAbgnh86lYBcBf7t759me7d78UX5kQv/dBZ7yuws51gNjvS9mmD5P39qe+3abvAfth9PbrHNbWc9xtM9PeHKswdFOPap7nCH33anbn2d02AyF8HTZvXlfnMPwVF9s2e2OmD3xxtN02MK6uwU495l2fbV95r6196JnH99pOzevqPNR96qVPrL8aYuWp7mPVub7/ztn2Ow+dXdd1WJptjw9Np8Zc7//9Z15XbHt59+AzT521/WD3/txWhLerOWZ/I19xsR2z6GfH67qPvVi2q+a2+hqN9badMev+8us2UtSv3B8Omf/UvAq/8h1v7P6PN97X/dbXt/cDAAAA14/w+VT0YeuHXozAcB0ixu+rsG8VAG6DxHUYuxvW1gHp1PYdA6Hrjgxa67DzzkTfDRnIluOtz6kIS4tgdxuK9mHpEQHoeszdMDa27ZzzQB3qGq5fn12ror+h/ifHPLM+92rcs2tevl73dUA9qnumtOprNf9izD5k3h+z7OP4+i+qD0jLkHcd8O4Gy9tgdBuwrtsNB6DD+uB5J4w927YTuB4SPj/V/X6Espv+Gv33Ie9Of7GtDoQzoN6Zy+u6j90pXpeh8ub4PhgeC43rscLc+Te2Ddf/m7p/98YIn9/Y/ftXf321DwAAALiuhM+nIsPWVbCXT7D2AXMZDM4MSKe27xjoszSrn1nWAeb+U7ZVsLlTj227Y+dxnjrUx65e7wW7+8HsecasZfg897pPhs97ffX33Kavges00u+wn+9+/fOf7z4/5JM/3zhmyFAouh+krsPnKujsg9qDn36eddwh4fP+OewFs8XTymW72uo8mwFyoRHYh725bUyFz9Pzb/c93K8nnwEAAODmET6fip0QsgoCi/B5HRxWX1FxZiiEXCYAHQqMj9B4wjbtzHVmEDxXBq6jxx4SPu/1U4e388Ycup61dbsDQt/J8HngHtr5B4/G8TPD8gvTB591iBrqsLMZyh4bPudTvKPHHhY+7/XTB8Sb7RnyjgbQ7TH31H1Pmg6fx+c/fPyssBwAAAC4EYTPp+KUw+clA8eRUHQn/JwZBB+kr+NG/fURM8c8qNYTY849n8sIn8vt69+LeVcWuReOMRIe10/eLhs+hz5QPTt+rQ6Fzxk+N7dvQ++16kniuedzGeHzzvZ63hXhMwAAANwKwudTccrh8+JPPo+EzznXiwifC6t+zvrfCYPPFT7316wOtAutMYeuZ23d7mLD553zGjn+cAt+7cZI2HqxTz5X+n52A+glnnweecq5D5B3A+hTe/I55z9yPAAAAHBrCJ9PxczwuRkK9se2Qtl54eZUuLz/lRKj3vaR7jN373Z37368e8/e/qGxqu0XHD6Hvb6aY67nVbZrzqE/diqg3zu2vLZFu9rFh8/9eWYwPlD/qzcUau5vv9DwOez11QqC+3nNCJ9X862fbK7tBdR9/1NPEl9C+FzPv1n/Ee959X3+4CAAAADcMMLnU7ET9o2Ez3VImKHti1/eD0SLY8dD0X68sZC672f3yd6z4+7sj/mWD3+mu7sKn+92H3/v7r7QClJXoWw5/qLhc5zfRNja3Na/DsWY+3NohfNzx8zaV0HxWb3Lc7/o8Hmv/pttB4x5WRpBav2VG2HR8PlszPYTzWNBcAbPu6Fscw4D5zQV8K70x+4GxWdj3ynO/aLD51b/fbtmH3u+vvut744/OBi+vfuVZhsAAADguhE+n4rZ4fO27SoU7cPBsVB2HTZm+6F2RdDaq4Pf3XHDQDA5+uTz2uScFg2fw/75NQP56hxj/NVcyzEziC/tBMpp5phn1kFvoepvVvi8d30K5fxb7QZqunedRtpeqgxcN/afGF40fD6zDpvHx6y/63gVWK/mWrYtQ+nU/rqNddhcGHqSOIPejaq/meHz3niF7bHz5z/03c/Nebzy2/vw+b7ut76+sR8AAAC4doTPN8TxoSzAKfim7t9F+Pzdrx78RysAAADgehE+3xDCZ+A6y+98/nevbO8HAAAArh/h8w0hfAaupc3XbfiuZwAAALhphM83xO0Ln/e/T7lJIM+Ase833hr6LmMAAAAApgifAQAAAABYnPAZAAAAAIDFCZ8BAAAAAFic8BkAAAAAgMUJnwEAAAAAWJzwGQAAAACAxQmfAQAAAABYnPAZAAAAAIDFCZ8BAAAAAFic8BkAAAAAgMUJnwEAAAAAWJzwGQAAAACAxQmfAQAAAABYnPAZAAAAAIDFCZ8BAAAAAFic8BkAAAAAgMUJnwEAAAAAWJzwGQAAAACAxQmfAQAAAABYnPAZAAAAAIDFCZ8BAAAAAFic8BkAAAAAgMUJnwEAAAAAWJzwGQAAAACAxQmfAQAAAABYnPAZAAAAAIDFCZ8BAAAAAFic8BkAAAAAgMUJnwEAAAAAWJzwGQAAAACAxQmf4aR8bffZz93TfeXpr23sA266Z3/jnq77ja9p7oNT88p3vLF7+Jdf293b2EfbldTs/teejfnG7vX3NvYBAMAFEz7fcPff+YPuqRef717T2Lfx9ue7D730B927P9DYx7k8+MxT3UsvfbB7f2Nfyyp4+sJXd8829sFtN+vz7Lp76GXdV77gH6BuikWDxnvv7R785R/r3nx/Y98FmZq/8PlwwmcAAG4b4fMNJ3y+WoeEz48//VVd94Wv6j77ULXvv/xs9/2f6bq/8Juf7b6h3P7ol7q/0Nj+zc+cbYvt6Zln948Z9JXu2/7Lx7tv+83WvkLZ56Sh/r7UffNOu2e7P7PX5kxzrLptzLvc349ZHfsNv/iVqs+BMUNx7Oa4HfWY86yuT30tw+rabPvcu44rdc1ybsfN5bpZOnz+iX/8q90//7dn/vGDzf0vf9u7un8U+wv/6MnGf1t+7r/baRN+6efKNg92v1Tt/+f/9u93j72tbFN431effRbc033pfY19V2gVmn3w3u6Vq9ev6F7/wfMFofc++mPdw79c2PR9cwifl/aq7s2r+6Uas69NvX09v6F7LPsa9uA7XrHfx57Dzv/ya3ZG+AwAwBUSPt9wwuerNT98/pruS0NPO2b4XAWMm3ByE2T2QWoZbA4F1yvtgHZPFYoerjVOBtJlmLqe//f/4uPbdhmWl8f228p2GQ7/mUf7Nq0x+1rs9J81m6jBuv9yrjn/w+tyUPi80y6D8t0AWvh8hD4s/qWf60PhVvi8abO/rQygv/fJv78XJK+31QH0rnXwPRxAn+L/BbEKzR59Vf96HdwdF4QOB4hvfscrinbX36JBo/D5zDYwLuuwnkd5T63/cWR3bgP3XW/euaz7iFC6vX/a5dfsjPAZAIArJHw+FasA+MvdO9/+bPful/6ge2r1ex+2xOsqcHnNM19eby9lmz5M3tuf+nabvgfsh9GPd+98sWyznuNum/nWwewnNn7/mdfttXn/ne3+VptVHy8+2j348oe6Tw22W+/71Nn57I7ZDoXnzGu83e5c9u2Pu37qeSBoWoWSX+q+7Re/UgSnEUSut2VAORhC9mHtNphNVxk+n9nrtxE+b0LeDFyH57wO44faDYXMx4bPZ/q67s532vHhcytkv4LwefNZVX2GNEPh/DxL9WdG/5ly56z+1efWh57p6zrz82zb54TV08z/XfcTq9fD4fMqHP6X7+q+d2f7d3eP/cuyff06rfttPiWd+qeqBwPqE/z6jXhSeRO6rYLQ48Ks9RPP88K3+unoOvRbBXmrp1m3oeR+u/W+CCu3IWUYCyGH+prTbncu+w4LHveeEK/UYfRUzabNn/82SB2r/1C/h9VhJe+7d7y2+IeQCJr7bdnnKmxtBPV9gN+a3/ZcdrfvWp/D4TXdmluzbbsM0nuN/0Ng8po3wuft/Vudc1+7jU2dU1GDqu1l/sMIAADXh/D5VPSBzodejHBmHcjE76tQ5gNf7MrQZh34fLG7vzh+6InAoe07+nBn9MnnDIB2+jqb550Dg5+V13UfezFC2Ke6jxVB1IPPfLB43Qe4q2C53/b2R7vfj213HiqOyQC46OsDH1xti7B5p6+dY/s5lP2fWYfdRTjcj7kbQM+Zf26L+U09+bz+I4ODf2RsFUp+qfvm1ZO76wA0AsdV6Jn7RkLZ4YB17JjCXkh8qIFx9vodCZ8zhF0d0wrS6327Yw4GvguEz825jDh/+Lx7La4mfI7PoDPx+bTa3ofMm9dnVp9bRYh8Jv/RbPtZU/6DVhFM98fWn0mzPs8OMhE+b0LqVIfKffhch9RTwXKYbNN/LnzuZd3jzf2XZyr8nA7sSn3gthdo1fp2ZdDWB4flsdsArQjW9oLHIuTbCSyr/s+sz7U4n2ZYmWFgHea9di+MnxdoztTPZTjgm1ezQ0zNf1v/Yl6NoLNVx71az7HqJ/qOc+3HiPHi/Db7+r4bIe3QdQ/zrtW6xnvh7gFW43zwjbvXcu+e3a3tdrz+Gm+u58xrXl2T7Ls+j/X28trV4xXbVrb12j8WAADWhM+nIgOdVXiTgUwfMJdBzEBQfNHh86Khzyoc3g1ua0Oh7Xr79tgMn7dBc1iHzXtPIldB894YfdC821ej3Yz5p6Hz2NE/4Tj4/a6rUHIbMP+ZR+NnHzbmvuZXSqQqwK23X0n43Ap998PndbC63dYMgVNfgzp8Hj3m6PC5P26w32FHh88DX6FyZeFzGTSfWQfL+Y9ixRPNRZvN9s1nSfVZt7EOs8vgOox/Dv189+uf/3z3+SGf/PnGMSNfu5H7Nl+N0b8eCJo3QXW+bvaZBkLryuj/EXHp1qHdblh2RKjaCNla1kHWfv91wJUh2m5/dUDYCOjO7I3Rh3b13PbaVUHemKHzOMrA/NLQWOvtx4WCU/Nf75+q/1AYvN9uUhUwx7HxczX+Zl9/vQcC96HQe961OmLOlXbN9kPxdrvdWg7Neb29uOblPdu/B/fPYeDc9u73vr719Zy4PwEAuL2Ez6diJwCuApoifN4NeLYuNnxuB0HHWj1dXAXBu9pPJa9UAXE73G2Hz/XXZ9THDgbFVdg8Pf+tWeHz6o+LNf7QYG8VLmbgGAHlb36l+/7y9XUJn1dhbWFvPhnolnbHnRM+r2uwO+bw08mtMddaIfiOqboNOCh8rsZsXd+rCp/3Pi/K/0Ojb9P6zGiG1FOfUb1F/xFsZSx8Xtv8UcLRdn2Y3Ldrf93Gbpv9p6obJj4bLtc6cMpgaRVu7YWJM8wKn4efTq0Drnb4Vodo7VCtPnYoyKvDt3aQ2jbY5zFGw735NTvE1PzPU//NnAdC4qbVtejHi/NaPUFcvL424fP+OPW81u3K0Ld2wDXPe3j11SQD898LmXt79894fQEAoCZ8PhWnHD5PhtOH6IPl4qsz9o20qb4GY8nwuf5+6V0ZPs+Z/9bi4XMflm7C1Awsf65/KrYZiJ5I+FyNsw5Xy37X57YJWFfj7h43J3xuP/k8NP8+fJ6owe64GWwfV5PjnnzOkHz/3E85fG59Zqw/w/IrNk45fM4nn6snmus/Epjb8ynm/o8STobLjT9euOfkwudtMLUKxi46fG6FW30QluHZecLP+th1+Dckz/2wwHQoaDzKXghYml+zQ0zNf1b9+/HbdT1zSIhZhs/9OdfjvPn+PhwduD9PNXyut69fzwif51zz/n2XWvfQerxtm5rwGQCAYwmfT8Uph88vv6Inn0fC50t98rlypU8+1zaB5ViIOrTvasPn/XmtX5dP9+4F1GNz2dm3O+a6n1ZoPVa3rb3QO78CY6p2DceFz7l//+nn6xk+X8STz0t+7UY+pdz+zuft12XUr3uzvnpj6I8aFk4hfJ4KDs8cFMRlf6PB1XSolkFYO8irA8J2YNgO+6bCxxN/8nlGzQ4xNf/z1P8oO+FzZXOefS2a12h437xrdf5zGRqnvq/W7c4XPm+uefFUc/4jy979ULTZ2b5nXQPhMwAAcwmfT8XM8Hkn4KmObYUyQ2H1rqlw+bCA6OVv+0j3mbt3u7t3P969p7F/Hcie5zufpwLj48Lnud/lPGf+G3P6nPjO58GwMhSB5VDAOhxOnkb4vA1T98Pn/ZB3OCzerVM9Zn/cXh2PDJ/PrOt9eF3Gr9N2+/5178+pOvag8HnivTnLQLC8Gwz3nxlD3/m82X7YZ8u8z7NDDIXPA6FyHUoPhsxDx++aCp9P6jufx544PUgfmE2EfEMBXb293W5e+Ll37MzwbToULMwO9OYYDz7n1uwgE/OfV/+RkPRAo+dSBK6D12h1Pu0gfl6dxq/BHGM1K2s0eA6FoTnvbd+5jvkerPqe/Y8U+3MFAIAxwudTMTd8fvk6KN6GN31w/OKX2wFOf+z4U8v9eGOhTt/Pbph0dtyd/THf8uHPdHdXAdfd7uPv3d23tg6D69D4wWc+WIS0fZvy6efqKzfWxywYPucT13v91ebMv9fPefxrOr62++zn7um63/iaxr5WCFkov2oig9qy7egTulcbPu+Ht43wudFuHbbufo/zfgDbGLNVn3OEz+O1HdEf1wrZy23N6954+vmg8Pm9H9+8Nz/z4be020xphc87n1HD23a/ciMcFj7P+zw7xFD4vP2u51/6uWJ7fqXGpn2G0btfxfG9T/79Vbuxr9TINjv97+g/Fz73su7x5v5LFuHV5qnMdXg1HVIN6EOuvdDsbPubq8B4J+DqjyuDv7Egb9uuHRjuHzsvGN/MrWr3yne8dj8ozHNdJKibmt+8mh1kYv7z6n+mD32PnkdvKGxdK8dtXaN+28BT6+N9p8a5Hag1TuurQNbtxsPnzTlNXfO9f0Ro1SfnccSYAAAwQvh8KmaHz9u2qzC4D3LG/nf0deCT7Yfa9aF2YSdICjvjhuoJ7DTr6coMerfqcHgb8m7l122kZcPnteZ3P++Fx3Pm31s9/Vy23R9z7AnH2eHzalsfphbqMHfrksPnal7759QOn5shbx/CbtVPEg+cWx63GXu/XhvFsc3w+cx+gD5TnlOhDNND+7pnLbdzyTB+X2teb+k+8tvLhM/lZ8XgZ0H+o9VG/Q9cB4bPZ+Z9no3pA+cBZRi888cGe/uBcv2HBNd2QuXN90UXJp6Knvo/Ii7bKgjbhHbr8Ono8Hklg9TCXiiYAdlWPWY7MFwftw3f6tdrQ2Fjfi3Bjr2gbX/+g4FkH7xu7Y8531RNpmt2sJH5z6t/L4PsHVNB566ha7ZWj9u4x0YC0/G+08C5HaJVh0Ygvp7PnPrMuOZ74fOZzTx2t6/H3e1vd379eMJnAABmEj7fELO+25kT9jXdl74w/PTzoQ56GpZbJf/PhPb/lTBD68lnFvfsb5zQU89wnfXh+blDeAAA4CjC5xtC+Hz9rZ9+XupJx/rrJOKJWWH0rZf/V8In3tPeP4fw+eKt/tDg6Tz1DNdb/wR08fRuPN0ujAYAgMshfL4hhM83w+ppxy98VffZh9r7D1J/tcPU12twgy3wdRtJ+Hyx+q/b+MrTX9veDxyh+mqKxtdcAAAAF0P4fEMIn2+K9R8Zuw7B0/r7jqfcjqeth793eVf9vc7XkvD5Qq3+AWqhr98BAACAqyZ8BgAAAABgccJnAAAAAAAWJ3wGAAAAAGBxwmcAAAAAABYnfAYAAAAAYHHCZwAAAAAAFid8BgAAAABgccJnrrUHn3mqe+mlD3bvb+w7Fe+/84mzOX6i+/1nXre376Ln//jTX9V1n3tZ93hj35X4wBe7p176g+6pF5/vXtPaf4Xe+1M/0/3bv/sz3XNvau8/Td/VPXc2588++C2NfdfLWx78q6v6D57L+766677w1d2zrX0AAADASRI+33D335kR9L39+e5DL/1B9+4PNPadOOHziFVYd0/3pfc19r382e7dZ9f8Q8883th3gYTPC7u68HlVr/e9oXtLY98xJsPnl39t99nP3XNa/5gCAAAAjBI+33DC59N2YfN/6GXdV75wT/eVp7+2vf+qwucTtg4//2r3y69p73/5a97QffbvrgPqtZG2l2ZO+Lxus51375zB8dLh88vf9NbVvMbD/6/pvnR2X3e/8TWNfQAAAMCpET7fcMLn03ZR83/2N6aeEBU+10bD5z4Y3Q15v6X75fe9tXtv2e7SzQ+f9+ceIfTxAfrVhM9nRp/oBwAAAE6J8PlUrALgL3fvfPs6FHxq9XsfHsfrKkB+zTNfXm8vZZs+TN7bn/p2m74H7IfRj3fvfLFss57jbpuZ3v5o9/svrb+OYq0KYPv9n6rmsPoKixcf7R7sX2/D24e6TxX9DX/FxbbNS3ce2muztttXPbftmK/rPvZi0a6YV8iv20j1uYRD5j81r43+qedWONe8bwp1GL3X/s6zO/u39211P9X/4JFftzHUz44F77NF9EHtaNCaYW4jjO6fmN6Ev6vX69A3v+pj7Enk/DqKtBsib4Pl3XblPIYC6v6J6HrcPgRu9rX39Hel7utCnhaf8fUbr/z27v944xu7f//qr2/vBwAAAC6F8PlU9CHeh16MoG0dvsXvq5BuFdxtA7h1yPfF7v7i+KEnnIe275jz5HMG2jt9nc3zzkTfLX2wvBOwxrYyDD4kfH7xqd22H/jgKpwtj12HvE91HytCzNi2Fwj3x+4G0w91nyper/taB8Dbc+iD4VagPXAuYe78WzVbh9v7AfTqjwxO/mG2qSefMwAu77P+H0bKe6D8h45NoNy3awbMfb9D4fOS99liRoLl0sCTu3tPVBeB7DYQ7oPgn/quzXFDTye/5cG3Fq/748Im+O2P2/Q1FD4PzK05h/1zn37y+Wzcav86bD9/AL2+x7+q++xD7f2/8h1vXIXP/8d3v7p7T2M/AAAAcDmEz6ciQ7dVKFcFf/1To6tweCAovujweVY/c63C1d0geM8h4fNeu/6J5KJdfVxbf9zgE9Fr7TFHxpgKn4+e/zrw3n1Kun8qdPI7cSfC5+ofPHa3F/fKzn27bbd+Ynr3H0jWxsPn6fvsbd3Tv/v57vOfH/C7T3dvax53TuXTwDvhbGkkQC63Zfhc9bMX5q7GnApq+zGrkHcdKmdgPBU+T3zVxUCoftTXbvTn3prLQUae7l/x5DMAAACcBOHzqdgJgPuALkO4IvAbCvUuNnyeekr2QH0YOxpAHxQ+7z/9u2pXbM+QdzSAHgmJS+u+JsLz0mT4PDX/VsgcWmH5+g+yDf+hwTR+TVf3TTM8ro4buneGwuvR8Hnh+2xx+RRwGngauPE1FTvBbWvbmTrMnRfutoPlueHzULC8Y+Z85xmZy0Hm3ucAAADAVRI+n4pTDp8nw+ljTHx/8TnD5+b2/EqNVD/hPOeJ7DOXET7vbO+P35l76aLC5+Z9sz5uEx4vGT5fyH12QYonoceC5VUIXAe0s8LcxhPTTecLn1tPPq8D9H3HhM/Zf034DAAAALeD8PlUnHL4fNFPpG5C4SKEPWf4XLerrZ8sroLbkZC4dBnh8+78h558brmc8Pnqnny+oq/daFqHursBbBkar3/fC1pP6MnnddC8fVJ7/br6qo8jn3xuBdtjczmM8BkAAACuA+HzqZgZPjdDvf7YVlg4/N27panQr5rPlLd9pPvM3bvd3bsfn//HvuqnjpuBbf+09GT43Leb+O7m/YB63nEXHz7X85j3XdRrc7/zeSwEPjMUHtfbB8Ln4fB6bNwD77Mr1wqfz6yein5r995VaNv4zuaZYe46vJ33nc9Hhc/9PLZPV/fnUz9tPTDf3TFqfQi/F04vFD5Pfefz17+6+/f+4CAAAABcOeHzqZgbPvdB8Ta864PjF7/cDu36Y8efJu3HGwup+352Q8Oz4+7sj/mWD3+mu7sKn+92H3/v7r4QgWvzieadELYOYPvXYSJ83u8rwtt5AfW6v/op47O2RbuLDp/353+mfzp8ztPPjz/9VV33ha/unm3sK60C4ubTyaEVBNf33plW+Lxzv9b6fkdD73n32eX5ru65xhO+7Sd7Qx/itoLcMPtJ4uxnN+B9y4NvLQLpdpg7GT5n8LzTd36ndbFt6OtFin1DQfLeU9SbMc8fPq/v8a/qPvtQe/97Xn3f6g8Ohn/3ynYbAAAA4OIJn0/F7PB523YV0vXh4djXa6yffs72Q+36YLGwFx7ujBsGgssZTz6vA9ZC6ysy+tA220R4uwpry7ZVm8G+yvC6Nxjk1t8NXQXB88Ln/fGa/c2e/0Db1jymngrd6O+z4pru/iPF1P4ze/dE2L8v1kF329H32WUqgtOtoad+M3htBdNnZofPIQPhrd3gdn74XPYRmnOr28Z8BuYbMoDfab/ZX8895tOe72HmPN3/Td2/68Pnf//qr2/sBwAAAC6D8PmGGAufuX2e/Y17Zj39fG47/2hCWofPw+E05/C+rx596jn9yndE+Hxf91tf394PAAAAXDzh8w0hfGZH//Tz9Hc/n5PwuWGJp3tpW/+hwcn7Or/z+Tu+qb0fAAAAuBTC5xtC+Mye1ROi93Rfefpr2/uXIHyuDP2hPc6v/7qNz72se7y5P2y/bsN3PQMAAMDVEz7fEMJnWlZ/mG00rDsn4XOv+K5kwfPFWP1jyiV8lQwAAACwGOEzAAAAAACLEz4DAAAAALA44TMAAAAAAIsTPgMAAAAAsDjhMwAAAAAAixM+AwAAAACwOOEzAAAAAACLEz4DAAAAALA44TMAAAAAAIsTPgMAAAAAsDjhMwAAAAAAixM+AwAAAACwOOEzAAAAAACLEz4DAAAAALA44TMAAAAAAIsTPgMAAAAAsDjhMwAAAAAAixM+AwAAAACwOOEzAAAAAACLEz4DAAAAALA44TMAAAAAAIsTPgMAAAAAsDjhMwAAAAAAixM+AwAAAACwOOEzAAAAAACLEz4DAAAAALA44TMAAAAAAIsTPgMAAAAAsDjhMwAAAAAAixM+AwAAAACwOOEzAAAAAACLEz4DAAAAALA44TMAAAAAAIsTPgMAAAAAsDjhMwAAAAAAixM+AwAAAACwOOEzAAAAAACLEz4DAAAAALA44TMAAAAAAIsTPgMAAAAAsDjhMwAAAAAAixM+AwAAAACwOOEzAAAAAACLEz4DAAAAALA44TMAAAAAAIsTPgMAAAAAsDjhMwAAAAAAixM+AwAAAACwOOEzAAAAAACLEz4DAAAAALA44TMAAAAAAIsTPgMAAAAAsDjhMwAAAAAAixM+AwAAAACwOOEzl+8DH+xeeukTW3ceare7DupzeemD3ftb7W6Rx5/+qq773Mu6x3e2f2332c/d033l6a8ttgEAAABwkwmfb7j77/xB99SLz3evaezbePvz3Yde+oPu3R9o7LtQr+s+9uI1Dp/74Pn3n3lde/9t9L6v7rov3NN96X0H7gMAAADgxhE+33DC54vz/juedN7x0Mu6r3xh/Onm1VPRX/iq7rMPtfcDAAAAcHMIn2844fPFWYXPLz7aPdjYdxs9+xv3NL5uo7b++o3pdgAAAABcd8LnU7EKgL/cvfPtz3bvfukPuqdWv/fhcbyuAuTXPPPl9fZStunD5L39qW+36XvAfhj9ePfOF8s26znutjnEdPi8frp4q/0VFw91nyravPTSU93Hdua13v+ps/N58Jmninbne2p5Tvi8O96Z+lxXX92xnu/uubbmVp9n2aavZWs+b3+0+/2z9ru169tv+qprVlyb/vhs27wG/VPPs75Sw9dvAAAAANwKwudT0YfPH3oxAt11yBu/P3Xn2e7lH/jiTtC7Do2/2N1fHD/0hPNiTz5noL3T19k870z0PWosfO6D1jJMzRC0bN/43uUMfCNsXm8rQttNfyNh7Yi9MLmynUeGu2VA3Din8g8Wbs6rMbdGgFx/7cd6bnWInNsb8yjquH9szj8U2/v5bmu7tv46ja/uni22Dfua7ktfuKfrfuNrGvsAAAAAuCmEz6ciw90ImzdPGPcB8yp87sPhgaD4osPnWf0cbDh83g9My+0Zhg4dX4e3jdA3FE8d7x4/z+iTz0N91+Ft/7p+mrg+//ZY6/PaHDv2hPNe0FzXtm7Xv95rV4250n+VxgFh8ryv6AAAAADgOhM+n4qdALgPnzPsLcLn9ddt7D71HC42fF5/FciHnnm8se885obHhT5gXYW3zbB1bTdgbQWmZ8q+yu0zjYXP9VPJW9VcBp4k3jUw/0b99ua0d45DNa+PHbkGe9ZPMo/9ocHaYU9KAwAAAHAdCZ9PxSmHzzOejD7ORPjcCEh3AueR8Hj3CekrCp+b+9Zz2ZzbnPC5n2e0ayrrVD1xvarDzjz68YcInwEAAABYiPD5VHjyecb2M2VgPBk+X/GTzyPh8zJPPreUbdd13D1upLY7hM8AAAAAnI/w+VTMDJ/Xv2//+GB5bCtkHgqrd02Fy9V8prztI91n7t7t7t79ePee1v6N4SC0/b3E9fah4+vt7fB2aIy5xsLn+gnkwe2zwue5gfHa5mnnVbi+P4fReW8cEj77zmcAAAAA9gmfT8Xc8LkPitd/mHD7+kMvfrkdDvfHjj+13I83FlL3/WzHDWfH3dkf8y0f/kx3dxU+3+0+/t7dfbvGQtV1YLyzr39SeSdEboS361C5DF0b4XOrrwONh7it8LZxTrPC5zN9u1nz7UPnT905q0Ortv25j4fZh4TPhz7JvH5S+pCwGgAAAIDrR/h8KmaHz9u2qzC4fwp67Os11k8/Z/uhdn2oXdiMl3bGDdUT2GniyedVaBvhZ8NuCNuHtYP7e30wu1U/zbzfT5gMfCdMP0HcB7jFmHvh8dzwOWRovKPxdHUx7nC/UzU5LHx++UMv677yhXu6L72vsa/2vq/uui98VffZhxr7AAAAALgxhM83xKzvdr61Gk8+s7jVV2lMPv18+Fd0AAAAAHA9CZ9vCOHzGOHzpeiffh4Lltdfz+GpZwAAAIDbQPh8QwifxwifL83qKzXu6b7y9NcO7pv11RwAAAAAXHvC5xtC+DxmOnwe+x7qrdb3K1NbPd38uZd1j+9sX3/dRjOUBgAAAOBGEj4DAAAAALA44TMAAAAAAIsTPgMAAAAAsDjhMwAAAAAAixM+AwAAAACwOOEzAAAAAACLEz4DAAAAALA44TMAAAAAAIsTPgMAAAAAsDjhMwAAAAAAixM+AwAAAACwOOEzAAAAAACLEz4DAAAAALA44TMAAAAAAIsTPgMAAAAAsDjhMwAAAAAAixM+AwAAAACwOOEzAAAAAACLEz4DAAAAALA44TMAAAAAAIsTPgMAAAAAsDjhMwAAAAAAixM+AwAAAACwOOEzAAAAAACLEz4DAAAAALA44TMAAAAAAIsTPgMAAAAAsDjhMwAAAAAAixM+AwAAAACwOOEzAAAAAACLEz4DAAAAALA44TMAAAAAAIsTPgMAAAAAsDjhMwAAAAAAixM+AwAAAACwOOEzAAAAAACLEz6fwzf/p1/XPX7vt3X/+ge/p/vf7v+BlX/3xtd37/+OP7Xa1zoGAAAAAOA2ED4f4ev+8B/ufv7eb+3+3w+8oftnr/9z3Y//iVd1937D16/8lVf/8e5f/cDruv/vA2/sfupb/2T3hxvHAwAAAADcdMLnA/3RP/yHu4+99ju7u294ffddr/iGZpsInP/SH/+W7v/553+w+4Xv+FMCaAAAAADg1hE+Hyi+UuMLP/R93XcOBM+l+1/5Td3/fv8PdO/4k69q7j/We97znu7u3bsb8fo7v/M7u0996lM721Nsj/2tvo5Rj//3/t7fa7b7oR/6oe5f/It/0f3kT/5kc3+q5770fAEAAADgpvjEJz6xk82FyOtabeeIDO8zn/nMufoYcqHh8+tf//rul37pl7qPfOQjq4DyR3/0R5vtan/jb/yN1THhp3/6p5ttplxE+PznXvEN3Rfe9L3dj3zLK1ev4ynob/m6/e92/pN/9D/dPO38t77jT62+E/qbG+2OETdB3AxxU7T2lzLUXfLGiXHjBs9weOjmzDfBCy+8MBo+5xyHAmwAAAAAYCtytzJLi+wtMri5GWAcG33k62sdPv/iL/5iM3R+xzvesQmYI6COtnWbCKFPKXz+uXu/tfvt77uv+8/+yB9ZvX7va7517ynot7zqm7svnm170zd94+r1nznb97/+n75/tT3bHCtuhDlPEqe4YS7jKeL6ho3XMe5b3/rWyfnWxwIAAAAAw+rwORySsdVtb1z4HNv/9t/+25vAOULmULbJ7acSPr/ij/yR7re+97Xdz77mP99siyefn/jOe7v/2xu/dxVAP/DN66/Z+MlX//Ftmz/yh7vffP2f6/72n37NZtux4gaYexO1nnrOG+nv/J2/s/oZTybHz9geN10+pn9oGDx0c0+F5THHX//1Xx8Np3POx84NAAAAAG6SyMda4XNkgX/9r//1VZZW521xzEc/+tFVm8zZQhyX+dv73//+nf11GB19xhPWuT/a5kOv5bcbxFjZ5sqefC7FU9ARRn/7t3/7zvZTCp9f+XVf1/3uD7yu+/E/sfv9zfkHCP+3+3+g+/c//IM7wXP61e/+M91zZ+rth4qLV1/AoTA2boYIfuPmyW15I2XgnDdF2U/eRHP/paO8sep9McZY+Bz749gYK2/c8ms66r7jdQTnZR8AAAAAcJtEjldncbEttLK6OqPLfLHcH3lhmctFm8wQ43Xmd2XOF33EWDFmjhv5XuaK8fMkwuehkPk6hM/h/lf+se7/8+ff0L34htd3f+rr/+je/njqeYnwOS5oeQFbN1PZtt6eN1IeH+L38kYKrWOHlDdZva++sWuxPW7a8vhyPnl+5XwBAAAA4Dars7vIzurguM7bytexP/rI4zMzLPssc8TM6Oq8sMz+sk3Zb2y78vA5wuXWU8/hlMLn/PqM8ms3wg+98o91//f7f2C1PZ5wfv77v3vnjwvGHx78J6/7s91//2e+fee4Y8TFKy9gKMPa3FZe+LJtedPktvrmC/UN3JI3VH1saWgeKbbHfMr92W+OHz8jcB8bBwAAAABui8juIi9LdTZYZm6ZtZV5YORtZcbYygzLba39oey7zvRy/5WGz2PBczil8Dn8re/4Uzt/cPDPveIbVn9w8BfOtkfIHNvrAPpbv/6Prr4Teok/ONgKheMmioC3vMHigrfC2taN0mo7FT5nP2NtQrSbCp/ruYfW+PmmmhoTAAAAAG6yqewuRJvI/Vr5Wxwb+/N1KzMstw1lfCcdPkewPBY8h1MLn7/vj/1nq+92fsefXH/1xp9/5R/r/vqf+s9XwXO2idD5F7/z3u7eb/j61et3v+Zbu8/94PfsPA19rFZQ3No2dAO2bqRDjg95I5V9DBm6MVOrr7H+h8JqAAAAALgt5oTPka1luzJoDvW2VmZYbsu8rh6zzP5abWLblYTP8Tom8pGPfGRH/OHBst2phc8RMv93f/o13f/6f/r+7vXf+J8125Tuf+U3df/7/T/QvfWPn/+p55AXPS/i1I2R28b2xe9xY8TNkNvGbuBW+yHlDZjb4veYQ26LceJ1tM3X2X9s+wf/4B9sjo2xy7YAAAAAcNvMCZ8zl2vlhGX+lm3rdvW2+Nn6g4MZYkdfJxM+z3Vq4XP4pq/7uu7XXvdnu//HD//gKlQun3pOsS32RfD8/v4rOeo2x8oLn9/pUt9ocQMMPR3cupHi90PD5xy7VN98IcabCp9DjJX9xL6ce960rX0AAAAAcBvNCZ9DtKtzv5AZYeRt0U8rM2xtq3PBDJ6D8HlB8d3O/5fvfE33//sLb+r+5fd/d/fjf+JVq6/Z+M5XfEP3f/7WP9ndfcPru//Xn39D91f/8z+xaPAMAAAAADDH3JD6Il14+PxLv/RLq6/UiBOdG0JH6JxfxXGK4XP6tq//o93/9bu+vfvCm7539V3QIf7YYATQ8YR06xgAAAAAgIsUTym3vqngsl1o+HyVLiN8BgAAAAA4FRE2R+h8CsFzED4DAAAAALA44TMAAAAAAIsTPgMAAAAAsDjhMwAAAAAAi9sJn7/+j3979x/8N7+zCp7jZ7nvuhE+AwAAAABcnb0nn//TV72m+0N/+odXP+t910mEzwAAAAAAXI298BkAAAAAAM5L+AwAAAAAwOKEzwAAAAAALO7GfuczAAAAAABXZy98/g/+m9/p7vmZz69+1vsAAAAAAGCOvfA5gudU7wMAAAAAgDmEzwAAAAAALE74DAAAAADA4oTPAAAAAAAsTvgMAAAAAMDihM8AAAAAACxO+AwAAAAAwOKEzwAAAAAALE74DAAAAADA4oTPAAAAAAAsTvjMoh555JHuhRde6B577LHm/qVE/3fv3u3u3LnT3Xfffc02U5588snu+eef7x544IHm/psia5Wee+65Zrvr5LLusyUseZ8det4xZox9G+7zU6T+AAAA3HbC51voIoO7Uwqfp0K/2xI+p6hT1GssfL4uNRE+C5+vA/UHAADgthM+VyIoKp8SvYmhwU0In+cQPu8SPh8mxzjvZ8FVhs95zcf+kSbuh0M+87J92Wddq1rrnqs/a+N13SbEXGJOY23G+iqPTzHXmHO2mTv/rGe9f+h6zKk/AAAA3GTC516GBHUoEcHF008/vdP2ujs0wDrERfZ9qAigxoK0qf03Td7jwudp0W+EihliZu2Oqc2SNT30vMfCz9a+qfPMuoRWn7XWfKPf6H/O8aEMx/N6pEP7StFnzCvm19qf5tQ75hRza7XJeh46PwAAALgphM+9CBDmhBEhw4ZUh3nRRwQi8bMMTuoAIvaFDDiyXSvEKEOfUI85p105l5Z63Po86+AnZPhTtgutcxgSbcdqH/PO2k3VYWg+KfZlqBbnE68ffvjhnWNa5zklx41j6znWtchAKvcPnXtd//pc876p+y/rVW7Pcc9Ts0PV59Cqbcxnqs3QHOtzn7o/5piqU2t+Y6J9HDd2n8XvsW3oXsnrWV7zsm6t6z1l6P6J1617sqxLmDNmtKvvn7nHhpzjE0880az9IX2Vhs691pp/7dj7AgAAAG6DxcPnV73qVd0P/dAPdd/6rd+6s/0bv/Ebuze96U3NkCC2ff/3f//e9ssS40eAMRViZLsyjMjgoTw2g40yYMp2EWZkf/F7tCn7i/Z18FNva/UVsr8yUInf64BlTvBShy55TBmwjG2bCnVKU8fEXOpzzWtRby/FvMpzaO3P8C7Hjp8xl5hT3X5MXpOp69m6dnWbsW1ljYbqFn237uUlajZXjlWfQ4SIdS1a751yjrkt5lZvK8+9rlmr1nO0+g7Rf1zfVm3HZE3LPuNned8NzbU+93gd7cq25z3Psq4h51vfA+X2GGuqDq3+h2rbUt6veY7H9lWbc+xQfWqtuQEAAABri4fPTz311CpU+bVf+7Xu1a9+9Wb7z/7sz3a/93u/133605/u7r///s32t771rd1nP/vZ1b53vetdm+2XaW7IEEFFtIv29fYySMr+6jCoDmzidd1fHpt9DQUb9Vzq48ZMtR3aH3MoQ6lWAHXIPFKeYx5TjpMBVH3+ZTBVbi/V823tL69bGKr3lDxuqh6tObXOpVXb2lCth45domZzxZxibjHH1v4wNFZsL49tnU997kPXbc48aq1jcg4f/ehHD65PzKm+z/JalOcVY9R91zXK866vYV2zuXJu2V9rrqGud+ua1Frnk7WNf4SInzFWaNW0PPcQv8e2Y/oqtWrf0pp/y9x2AAAAcBsJn89ksFIGGy1DIUMdjNRBTaoDm/p1qI/NgKUOlep2ZVBTtmsZml8a6qucS33OaarvlgyDsq+oS9xD0cfQOHlMtC23l6Zq0to/NN6UPG5sPmNzru+FGD9qUN8fpaFa132lJWo219AcUs6l1aY8r6HrUZ97/Mx7c6zdHGVf9fjH1GfomKhRuT3Gzfs+Xreu19D51MceIvuM41s1DPX1nLq+2Wd93eJ1fV/neZa1qOtevz6kr3J7tA/1/trQ/FOcf/Y1VDMAAADgAsLn6/i1G1NBQxoKXDIYyZAo+6uDoDkBTn1sBixDst3Q3FqG5peir9ZYIYOWVhgUpvoeEmOG6DfO49lnn131nePU/cV5Rrs4ptxeiuPHQqbW/qHzmpLHjc0n27TqGurrF+dc7q/7nnufpSVqNsecccba5HmV17++HvW5x/6yVrVD7sdoG33nE7XlscfUZ+iYentdkzjH2B8/85ihaz60fUrWLX7G6xg7XpfXJetRziP2t+6xcv/QOdd9hXr+df+t+2BuXy2xrzzv2tD8W3K8smYAAADAmj84eCaDjbEwJQwFLnUwMhR+1Me3+quPjZ+tgKUWYx8algyFM3P6qs85TfU9JGsRT79H8BzH5+sYpz7/qFnsHwt8ps6jtX/ovKbkcWPzmTPnIXFMHQoO1Tra1PdVWKJmcw3NIY3NpTyvoetRn3v8jNf1fXKM7LvV39R5tQzVtNVX2TZ+r/fX552OOf84phXAxuvYHvuH6j9Wh5xjfUwYmmd5Xq02rXnM6avcXhs6hzy+Nf8h0bZ1jQEAAOC2Ez73IohoBRmlobCj3j4UftRhRyv8qI8d6qsW+zMwau0vDQVKKfponWcp5hxzj3Mot8frufMoxVyiv/hO3fg95hhf0RJPn8bPOtQZGr80dR6twGiqNkPyuLH5hNY1n6s+tnVv5DxaYyxRs7miflP9tOpfbx+ac7wu77NWLY41NOax90brPLOvoTF+4Rd+YTWHeqyh84x+6jGmRN+t92q8ju2xP38fU99rY3MZmn+8zvslr+2YmNucvsrttRinnntuP6aWhx4DAAAAt4HwuZehTx1axPann3569XuGUmVgkcdFYJHHDIUiddjRCj9ax0a7qTAl51a3i37qeWTbobBkan+KwKUcLwOY1rlPifYRKpX9xXnHtrpGIedY1r2WtRxq0wqM8nrGvrLtlNZ90DI1pxDnFvtb8yqPq7fl64us2Vw5l1CeR/xjQl7f1jnl+GX9595n0U/Z7jzyfsz+s3atuk5p3Wcx13pbuS/Gbu3P+pTnXc91ruyrPKc8z6k6xhxbtcg+x94/9bm37oNatqn7PaavEP20ajZn/rWs/yHHAAAAwG0hfK5EaBFBQiqDjZDhTNmmDh1aAVGIvsvApn4dho7NsKTUCn/q+Q+FMBnSlG1b8y33h7q/sk38nv3WfU3J8y7PKUOdcszWnFJrzOwjldczalpf35z/oUFSHlfXpyXblvMK5fxbbVpzyrqVfUS7+j4r+ykdWrNDxPgxj7Kv+hxa59maU3kO8XseV7eN/su+Qut9Mkddh2P7qa/RVF85buteatU0+o4x6rZztOY253rH3FrnENvnzKe8nmHq/ZbXu9Vuqq9D6j81/9b9OqdeAAAAcFsJnwFOSIbPrRAeAAAA4DoRPgOckKGnigEAAACuG+EzwImIr4w4z9doAAAAAJwS4TPAFcvvLRY8AwAAADeJ8BkAAAAAgMUJnwEAAAAAWJzwGQAAAACAxQmfAQAAAABYnPAZAAAAAIDFCZ8BAAAAAFic8BkAAAAAgMUJn6+B5557rrt79+7GY4891mx36vI8nnzyyeb+ixbj37lzp7vvvvua+wEAAACA5Qifr5FHHnmke+GFF04qfH7ggQe6559/flagfJXhc87zugb3AAAAAHDdCJ+vkesePl+lmF/MM+bb2n8bxH0T4f9trwMAAAAAl0P4fI0In48TX7MRX7cRT1639t90eY3i/IPwGQAAAIDLIHwuZLib360cv8e2ul2GmVPtMvTLdq3Qb06bNBU+z5lXPgH80EMP7bStvwu57iuUAXP8Xu6rlW3z6zbSWHhet61D7QxQ62s11mfsm3uNjr2WcUxsi5/lOdR1bfU1NGZd4+i33J/9RLs4x7Jt1iOvY76OPuq5AwAAAMBFED73IoyLYK4MCuN1HQzG77GtDBXj50c/+tGdYzMMLAPDGOPpp5/evM6+6qB2KBzM9hkkljKILMeLfuv5l4Fmjts69tlnn905Ls+nnGvIY+vtLXPmX9Y125fzit9jHmWNWudZimPGQuCy/9gWr8u2OY/yHKNNOYdsM1XXOWPGz5hv2X8eV55HbjukHvW8AQAAAOCiCJ9HDIWOrSCzlOFhGTC2tPrKQLEcM+V8WuFttK9DxdY8ol2ElXUfU+eVfR0y39qh88/tZZAa86yD1bF+c36tfWPHleZcp+yrrHWoj50zZuyrzzG3l9cu51DPbWyMmE+rzgAAAACwNOHziDpgrF8PmRMwDvWVIW8dYoahfseOqcPPOsw9RN1XmFuTMDX/uu9QH9Oaw1i9Y15DYWvOvRXG122mrtPQHOr5zhkzjmnNuZ5Lvs45zDHUNwAAAAAsTfhciFAvQsFahn1jIWcp9ke7aN/aH7Kv1nihFSgOjV8Gmi1l+BnnMjW3MDS/OvitA9ExQ/Ovg9xSHpP9R5t6DlP9js0t2+T51bUZqkPKOQ/NoTXfqTFbx4Q6bBY+AwAAAHDKhM+9CCgjCCzDwzpYnRu0DgWRpbl9lYb6zTBzTggZ49VhZy3HqfuL13Uoesh5HDP/+pjWHIb6jddT51rKfspjznvNW/MttcYcOmbofmzVbUi0jWPi2NZ+AAAAAFiK8PlMhp914FeHfUPtanNCwezrkOBwKOAMQ4FlbU74PNSmNcYh5zE2/xizFYrW21tzGOp3bk1KdV9zz+88c6iPjZ/xOraX7ertc+6zWrRt1RkAAAAAliZ87kUoVwZ7GQjG09AZPocIAMuvWwgRLH70ox/dCRjjmPrYCPyefvrpzevsq2wzpg4pW/umgsgYqzzPlnpeGcDGtlaQWtduyNj8W0Fqti/rE/vrObT6HRsrxb669q361PVoGRqvnu+cMbPe5XGt+gifAQAAADhlwudeBn4RMoYI6B5++OHVzzoszKAx29ZhZcrQsuyzDv3qvkLZXwaM5f5U9zfUtgxEW+FqS7Sr+2gFv6GuXcianXf+U2FuyBrW51n331Kf59AxU9epNYfQmu+cMcdqmrJeU+Fz7C/7KU0dCwAAAADHEj5z42RwW4e1AAAAAMDlET5z48TTx3Oe7gYAAAAALo7wGQAAAACAxQmfAQAAAABYnPAZAAAAAIDFCZ8BAAAAAFic8BkAAAAAgMUJnwEAAAAAWJzwGQAAAACAxQmfAQAAAABYnPAZAAAAAIDFCZ9P3AMPPNA9//zz3ZNPPtncDwAAAABwioTPJ+4qw+fnnnuuu3PnTnffffc19wMAAAAADBE+Fx555JHuhRde6O7evbsSv8e2VtvLMid8zjY573Te4Fj4DAAAAAAcS/jce+yxx1aBbRnyRugaAWyEu2Xby3RI+FzPPYLj8wTowmcAAAAA4FjC5zMZ1I4FrdkmQt46jM4npjP8jdfRLn5GgDv1JHIcl23qALwMlst25TyGAurcXo+bQXurrzyXcn+p7qtufwpPiwMAAAAAV0/4fGYsWC5laBs/y+0R+pahaxnIZiCcQXCE0XlcjlsHtk888cTmdR5XBr95XPaVberwObTm9uyzz272j5371JPP0T7alPvjtQAaAAAAABA+98qngcuAuDQWIJfbIniNALbuJ16XYW6MORXU5ph1CByhcgbG2WYofG4F5qWhUL2e7xx57q25AAAAAAC3h/C5kEFyhtBDTwOX2zNsLYPb1rZQh7lzwt2hYHlu+DwULJfmzneOsbkAAAAAALeH8HlAhrZ1cFsHtRGy1gHtnDA3xO+xrWxTO2/4HNvqc4gx89xKY/Mtt5ey/1prLgAAAADA7SF8HpGhbhnAlqFx/l4Hraf05HOMke3ydcwt5phtjn3yOcaLoLk8bmwuAAAAAMDtIXwekUFqHcBG2Brb82cZ5Ia5YW4EtHUQXBsKc+N1bI/9Q21yHjFuvM52+bpuV8+3HKPcHuIc4lzq2gzNBQAAAAC4XYTPZyIwjUC2fsI3AtT6yd6QAWvsq4PcMDd8zn7qgPeJJ57YBNJDYW4ZDLfa5BzKvjMwLrfFHPOrMur55r6hIDnOpwzPc8yxYwAAAACA20H43CuD01SGtLUIXqNNHdiG7GsqfA4ZCJfjlsFtK1gO8Trnl23KPkJrbnXbGPtd73pXc74hxin7LOdfzz36ffjhh5vzBQAAAABuF+HzkSJIzvC3tR8AAAAA4DYTPh9h6GlkAAAAAADWhM8Hyq+aKL9+AgAAAACAXcLnmcrvShY8AwAAAACMEz4DAAAAALA44TMAAAAAAIsTPgMAAAAAsDjhMwAAAAAAixM+AwAAAACwOOEzAAAAAACLEz73nnzyye7555/vHnjggeb+WrS/e/fu6mdr/xyHjnlRHnvsse6FF17oHnnkkdXrmE/M6zzndqgYO+YQc2ntT6dSs9pV1GwuNTucmp2G/FyIz9r68/a+++7r7ty50z333HM7x5yC+jP1VKjZ4U65Zik/F07xMwsAAED43Ds0bIr25w2f5wauF6216I+Fdiy4Y+Fdtr0oc2txKjVrueyazaVmh1Ozq1d/LmUIWH7mHvq5fVlO+R8J1Oxwp1qzlLU75TkCAAC3l/C5d+jiMoKRCJ/PG05FkBRa+w6VgVk+JTg3HK9DnhC/Rz3KbecR8yjnVZ9zzn1OPZesWS7ac151HUI991QHgJddsxTby3ata37ZNQt5TbNd6/2lZrvtrqJmp2joHOvtWdfzfg6n6Heq/mHOfRZtlvxHgjn37Jz7TM1221z3moX8h5klawcAALAU4XMvFnlDC8CWWITGYvC8i9E4vrXYPVRrPrmtteAuteaQi9mhxe4hoo+y/1x4l33ntnL+Q1rzPUZrHvVcw9x747JrluOVcxu65pdds3oerbmW29Xsamp2quLcWueX5x61ym3RLrbFvrLtoebWv752retbbi/neozWPOq5hrn3WW5Xs5tRs5B9LDE/AACApQmfe7EQjMXfww8/vPoZi8N6oXoRctE4NE5sj3nUC856e2thnH3Xx+YiNs8xtBbbsUiuF8QptsW++rh6e45Vhwnxujy2bBfzzXm1FtOXXbM4bqgOtcusWf06teZ7mTVr1TDkedZzULOrqVluz7FjzqFVn5DHZ7ty/Ggfx9VzGtoe55n9hPK8o92nP/3p5hxCtC3bR7vof6x9jFHXsNw+t/55PlP3WarnWsq+pmo2956NcabusxR9qdnNqRkAAMApEz73clFaLvjiZywa6wXg0uoFcS0WquWCMxem5QI2fq/7qBe0oXVO8XtrQds6vjQ0j7Kv1rnlArxcqEf7aBeyvxy/7D+dt2ZD55b1KfueGqs01G9asmZxXB2c5Pit+3bqPJaqWR7XGj/aDc257jep2cXUrGxX9h8/P/rRj+6Ml/Mt+4s5PP3003ttck5xfPRb1y/2l+dZzzX25XzyPKPf7DuU88hxym2l1jzquc6tf7yuzyf7L/tL0V9d83p/eVxrrnFeOX4eV9Yl+sjXrfGjzdCc1exm1AwAAOCUCZ97ufgrF4W52MsFYdl+SUML0lTOIxajrTnlQjoX7fm6bJf91IvnGHdosd9axJdycR0/y99zf318zivCrXIuWYN6bnFdWnM7b81ax+eC/4knntgZM++NUtlX7TJqludX1ivPKeYf7euA4rJqFvvL+oU8pziHaB/9575yv5pdXs3CVB+hVbchcW55HuXvrbal6DvPMY6L1zluvM7rGfPP/eXxsa1Vo5THx3Hl77k/+p1T/9yW9cq+yvssjy/3x/zK7aXYN1SzVu1jX7Qp79ncVl7frEl5n+W+cn/MsdyeyjqVv+d+NdtuT2Wdyt9z/0XVDAAA4JQJn3tDi8pY5LW2L61ebNZyoRwBUmtRnKKfaBPqBWprsR1aC+I0dExpbMzyvMpx6oBgbG7Rb2v8su96X8g+4/j6/Mrx6rmU88z2pQwChu6LoXMpxVjnqVk95/L+zfnFtrLfuu96X8i5n6dm5e/1XIbeZ2Xf5fZSjKVm++MeW7Oxcy7NGSflOeaYU32n8hxjnvE6xo1t8bP8PfYdcy4x/5xXjlXum1P/GDfvhfKY+tqWyuPrfWGsZnW/ZV/lPGMOeY3qY8p5Zr+hPs8WNbs+NQMAADhVwudeufCbs31pQ4vdUsylXminXMjmXHNhXfaZ22Ks8tixsecsduuxy325iC6f6ortdb9DcxvaHs5Ts+y3fBIu983pN9pEv615XUbNyt+zfWwr+27dJ5dRs/w9nx4saxTHtM5ZzS6/Zjm3cqyWOedfyn7L+pZyTlGvUmz7iZ/4idVxMWZ53vE6f4/trXOur2lLtImx6nPOc5yqf44x9XlWmlPnoZqV/dbnl3WM+eXxU/dZbkt1ny3RRs226j5bos1l1wwAAOBUCZ975cKv3D5nobmEXFSWC+BSLFJjMdta1Oax9fxzoZ3zH1rQ54K4tdDO/a3ahBw7/kBYqGsV5xPzrbfn3PJ8j5lbjn1MzXL8ensYuhdKOd+xsS+6ZnledRAxVMtwGTXL8VvXLfqtzyup2eXWrK7NkLHa1LLPGCt+1nUu95dzyVrU4XO2K2sVv7fmHPOMNnX9UhwT5/HJT35yr855jlP1jz7m3Ge16KOuRZqqWbyeumezj6n7rNweoo/YV59zUrPrVTMAAIBTJHzutRabudAbWgAvbWjBW84jFqK54M52ub9eqNZts125cM02rcVwah2XYlseGwv4WDCX7XKxXS/u43U55lC7OOfyXGvH1iyUi/3clm2nrnl53q39l1Gz+nUaqsnU/qVqNlTDsZpM7Y9tarbdPmd/bBurWY5Zz61WnmNrfyna5PnHWDFmeU1yHuW2EG3juLHwOX+PMerjw1ANQ94f0U+eT3neQ8fW9Z17n9XG9s+pWevYaJvHxevopzynMFaTqf1qdv1qBgAAcIqEz716URrKBW7Z9qLkArRccOZitZxHLkzLBWz8PhT01O3KvvJ1GFvQRn3KRXTI/nPBHKK/enFcj5nzL4/Lba35l9tq56lZax71XFta591y0TXL8yzHOJWa1fNozbVFzS63ZtmunG/0E/+7f9lf9FP3F3N/+umn99rU85+qT/wex0W71tduPPzww6ufsf2hhx5a/SzrVorj6rrG73l8nlOrPrmtnn95XKivXev61rKvus2cmrXmUc81zL3PatGHmt2MmgEAAJwi4XMvF3axKEz1YvAyxIKzHDde14vXkAvw2J/bsm2pPi4XuuX+OPdY5MbPsm0p65ML5nw9tACPfWV/9dym5hXqPoacp2Z5HjlmfT6hnvvceWXfF1Wz0KpbjjfmomsWMmRJ5XhD1Ozya1bPrd6f6rmV/ee+er6tudT9RL1Ctom6xetyvnFM/B7t8zxb8pi8JuW1ro9rXb96bkP1z2NT2ceQ8hzjdY41p2bleaRWHeprWfYxRM1uVs0AAABOjfD5xMSiNBbCsSBu7b8qubiOxXBr/1VSs8Op2eHU7HJEwHaec4ljh8K8q5QhZ9xHrf1XSc0Od6o1AwAAODXC5xMjfDucmh1OzQ6nZpcjziGeKj32XOI4geVh1Oxwp1wzAACAUyJ8BuCkROBYf/1BPBEt6AMAAIDrRfi8sAhNyu9obLkpTygCXJT6s/QUn34FAAAAxgmfAQAAAABYnPAZAAAAAIDFCZ8BAAAAAFic8BkAAAAAgMUJnwEAAAAAWJzwGQAAAACAxQmfAQAAAABYnPD5xD3wwAPd888/3z355JPN/QAAAAAAp0j4fOKuMnx+7rnnujt37nT33Xdfcz8AAAAAwBDhc+GRRx7pXnjhhe7u3bsr8Xtsa7W9LHPC52yT807nDY6FzwAAAADAsYTPvccee2wV2JYhb4SuEcBGuFu2vUyHhM/13CM4Pk+ALnwGAAAAAI4lfD6TQe1Y0JptIuStw+h8YjrD33gd7eJnBLhTTyLHcdmmDsDLYLlsV85jKKDO7fW4GbS3+spzKfeX6r7q9qfwtDgAAAAAcPWEz2fGguVShrbxs9weoW8ZupaBbAbCGQRHGJ3H5bh1YPvEE09sXudxZfCbx2Vf2aYOn0Nrbs8+++xm/9i5Tz35HO2jTbk/XgugAQAAAADhc698GrgMiEtjAXK5LYLXCGDrfuJ1GebGmFNBbY5Zh8ARKmdgnG2GwudWYF4aCtXr+c6R596aCwAAAABwewifCxkkZwg99DRwuT3D1jK4bW0LdZg7J9wdCpbnhs9DwXJp7nznGJsLAAAAAHB7CJ8HZGhbB7d1UBshax3QzglzQ/we28o2tfOGz7GtPocYM8+tNDbfcnsp+6+15gIAAAAA3B7C5xEZ6pYBbBka5+910HpKTz7HGNkuX8fcYo7Z5tgnn2O8CJrL48bmAgAAAADcHsLnERmk1gFshK2xPX+WQW6YG+ZGQFsHwbWhMDdex/bYP9Qm5xHjxutsl6/rdvV8yzHK7SHOIc6lrs3QXAAAAACA20X4fCYC0whk6yd8I0Ctn+wNGbDGvjrIDXPD5+ynDnifeOKJTSA9FOaWwXCrTc6h7DsD43JbzDG/KqOeb+4bCpLjfMrwPMccOwYAAAAAuB2Ez70yOE1lSFuL4DXa1IFtyL6mwueQgXA5bhnctoLlEK9zftmm7CO05la3jbHf9a53NecbYpyyz3L+9dyj34cffrg5XwAAAADgdhE+HymC5Ax/W/sBAAAAAG4z4fMRhp5GBgAAAABgTfh8oPyqifLrJwAAAAAA2CV8nqn8rmTBMwAAAADAOOEzAAAAAACLEz4DAAAAALA44TMAAAAAAIsTPgMAAAAAsDjhMwAAAAAAixM+AwAAAACwOOEzAAAAAACLEz73nnzyye7555/vHnjggeb+WrS/e/fu6mdr/xyHjnlRHnvsse6FF17oHnnkkdXrmE/M6zzndqgYO+YQc2ntT6dSs9pV1GwuNTucmrXdd9993Z07d1affameS7aZei+XnnvuudUxcWy5PT8XWmPlOHFsecwpqD9TT4WaHe6Ua5byc+EUP7MAAACEz71Dw6Zo3wpeDjE3cL1orUX/UBh0UebW4lRq1nLZNZtLzQ6nZvsyhBv6nIzPwvw8fPbZZ1c1DJ/+9KcnP1db51R/LuX45Wdu/H6KgVvMJ+Z1nv8+XBQ1O9yp1ixl7U55jgAAwO0lfO4duriMYCTC5/OGUxG6hNa+Q2Vglk8Jzg3H65AnxO9Rj3LbecQ8ynnV55xzn1PPJWuWi/acV12HUM891WHZZdcsxfayXeuaX3bNQl7TbNd6f6nZbrurqNlcObdWrUKeY/jkJz+5MlTbWtS5fD8NnWO9Pcc87+dwynMcq3+Yc59Fm/oz4jzm3LNz7jM1221z3WsW8h9mlqwdAADAUoTPvVjkDS0AW2IRGovB8y5G4/jWYvdQrfnkttaCu9SaQy5mhxa7h4g+yv5z4V32ndvK+Q9pzfcYrXnUcw1z743LrlmOV85t6Jpfds3qebTmWm5Xs6up2SHyPGKerf0p5hpzrus5Js4lzinOLV+3zi/PvZxDfeyx5tY/xiuvXev6ltun6jWlNY96rqE1j3qu5XY1uxk1C9nHEvMDAABYmvC5FwvBWPw9/PDDq5+xOKwXqhchF41D48T2mEe94Ky3txbG2Xd9bC5i8xxDa7Edi+R6QZxiW+yrj6u351h1mBCvy2PLdjHfnFdrMX3ZNYvjhupQu8ya1a9Ta76XWbNWDUOeZz0HNbuamuX2HDvmHFr1CbEt9tU1Ttl/KJ98brXPGpWyRtFPfFVHaw4halTWKdrFmGPto/+6huX2ufUfqsHQfVXPtZR9Rf8xztD2ob5jTuWxMU7WMNsMnVf0pWY3p2YAAACnTPjcy0VpueCLn7ForBeAS6sXxLVYqJYLzlyYlgvY+L3uo17QhtY5xe+tBW3r+NLQPMq+WueWC/ByoR7to13I/nL8sv903poNnVvWp+x7aqzSUL9pyZrFcXVwkuO37tup81iqZnlca/xoNzTnut+kZhdTs7Jd2X/8/OhHP7r6WdampaxNzCXEcRE8R9+h/s7nmEd5XG7LOUQN8vd6/ByjPK9oF+3LbaXcX46Z9c/6ZR2m6h+v67ln/2V/Kfqra17vL49rzbWsTR5X1iX6yNet8aPN0JzV7GbUDAAA4JQJn3u5+CsXhbnYywVh2X5JQwvSVM4jFqOtOeVCOhft+bpsl/3Ui+cYd2ix31rEl3JxHT/L33N/fXzOK8Ktci5Zg3pucV1acztvzVrH54L/iSee2Bkz741S2VftMmqW51fWK88p5h/t64DismoW+8v6hTynOIdoH/3nvnK/ml1ezcJUH6WpWqSsSavdUB/lPKI+8Tr7idd5PeO43F8enzWta5Ty+Diu/D33R79z6p/bsl7ZV3mf5fHl/phfub0U+3Ls8vfYlzUo+80alvdsq65Zk/I+y33l/phjuT2VdSp/z/1qtt2eyjqVv+f+i6oZAADAKRM+94YWlbHIa21fWr3YrOVCOQKk1qI4RT/RJtQL1NZiO7QWxGnomNLYmOV5lePUAcHY3KLf1vhl3/W+kH3G8fX5lePVcynnme1LGQQM3RdD51KKsc5Ts3rO5f2b84ttZb913/W+kHM/T83K3+u5DL3Pyr7L7aUYS832xz22ZmPn3DJnvClD51LWOH6PdjFetI2f5e+x75hziXlnLeo5zK1/Oc/ymPralsrj630hj825ledQ91v2Vc4z5pDXpj6mnGf2G+rzbFGz61MzAACAUyV87pULvznblza02C3FXOqFdsqFbM41F9Zln7ktxiqPHRt7zmK3Hrvcl4vo8qmu2F73OzS3oe3hPDXLfssn4XLfnH6jTfTbmtdl1Kz8PdvHtrLv1n1yGTXL3/PpwbJGcUzrnNXs8muWcyvHGnNo+5ahc8nr8aM/+qOrnzFG2TZe5++xvXXO9TVtiTat9228nlP/HGPq86w0p27Zpp5/2W99fjF2zCHml8dP3We5LdV9tkQbNduq+2yJNpddMwAAgFMlfO6VC79y+5yF5hJyUVkugEuxSI3FbGtRm8fW88+Fds5/aEGfC+LWQjv3t2oTcuz4XtdQ1yrOJ+Zbb8+55fkeM7cc+5ia5fj19jB0L5RyvmNjX3TN8rzqIGKoluEyapbjt65b9FufV1Kzy61ZXZspYzWaqzzncnueYx0+55zL4+L31pxjftGmrl+KY2L+8X3UdZ3z3KbqH33Muc9q0Udo7ctjo8/4WbeL11P3bPYxdZ+V20P0Efvqc05qdr1qBgAAcIqEz73WYjMXekML4KUNLXjLecRCNBfc2S731wvVum22Kxeu2aa1GE6t41Jsy2NjAR8L5rJdLrbrxX28LsccahfnXJ5r7diahXKxn9uy7dQ1L8+7tf8yala/TkM1mdq/VM2GajhWk6n9sU3Nttvn7I9tYzXLMeu5DRmq8SFa9c9+Yx5j4XP+HjVqzWGohiHHiH6yZtnf2LF1fYdq0DqvuftjzLxnYpy4TmX/Q8dG2zwuXkc/5TmFsZpM7Vez61czAACAUyR87tWL0lAucMu2FyUXoOWCMxer5TxyYVouYOP31gI8ttXtyr7ydRhb0EZ9ykV0yP5zwRyiv3pxXI+Z8y+Py22t+ZfbauepWWse9VxbWufdctE1y/MsxziVmtXzaM21Rc0ut2bZrpxv9BP/u389Zp5HWYNDZR1zvHydT2a3vnbj4YcfXv2M7Q899NDqZ1m3UhxX1zXHKGvUqk9uy/OLtnFMeVyor13r+tayr7pNvG6NWfbfmkc91zD3PqtFH2p2M2oGAABwioTPvVzYxaIw1YvByxALznLceF0vXkMuwGN/bsu2pfq4XOiW++PcY5EbP8u2paxPLpjz9dACPPaV/dVzm5pXqPsYcp6a5XnkmPX5hHruc+eVfV9UzUKrbjnemIuuWciQJZXjDVGzy69ZPbd6f91uTq3GlOPlWFGzPNeoW7wu5xtjxu9xzNj4eUxek/Ja18e1rl+0iW1pqP55bCr7GBJtymuSY9VjZH3KtuV5pFYdytqGso8hanazagYAAHBqhM8nJhalsRCOBXFr/1XJxXUshlv7r5KaHU7NDqdmlyMCtvOcSxw7FOZdpQw54z5q7b9Kana4U60ZAADAqRE+nxjh2+HU7HBqdjg1uxxxDvFU6bHnEscJLA+jZoc75ZoBAACcEuEzACclAsf66w/iiWhBHwAAAFwvwueFRWhSfkdjy015QhHgotSfpaf49CsAAAAwTvgMAAAAAMDihM8AAAAAACxO+AwAAAAAwOKEzwAAAAAALE74DAAAAADA4oTPAAAAAAAsTvgMAAAAAMDihM8n7oEHHuief/757sknn2zuBwAAAAA4RcLnE3eV4fNzzz3X3blzp7vvvvua+wEAAAAAhgifC4888kj3wgsvdHfv3l2J32Nbq+1lmRM+Z5ucdzpvcCx8BgAAAACOJXzuPfbYY6vAtgx5I3SNADbC3bLtZTokfK7nHsHxeQJ04TMAAAAAcCzh85kMaseC1mwTIW8dRucT0xn+xutoFz8jwJ16EjmOyzZ1AF4Gy2W7ch5DAXVur8fNoL3VV55Lub9U91W3P4WnxQEAAACAqyd8PjMWLJcytI2f5fYIfcvQtQxkMxDOIDjC6Dwux60D2yeeeGLzOo8rg988LvvKNnX4HFpze/bZZzf7x8596snnaB9tyv3xWgANAAAAAAife+XTwGVAXBoLkMttEbxGAFv3E6/LMDfGnApqc8w6BI5QOQPjbDMUPrcC89JQqF7Pd44899ZcAAAAAIDbQ/hcyCA5Q+ihp4HL7Rm2lsFta1uow9w54e5QsDw3fB4Klktz5zvH2FwAAAAAgNtD+DwgQ9s6uK2D2ghZ64B2Tpgb4vfYVrapnTd8jm31OcSYeW6lsfmW20vZf601FwAAAADg9hA+j8hQtwxgy9A4f6+D1lN68jnGyHb5OuYWc8w2xz75HONF0FweNzYXAAAAAOD2ED6PyCC1DmAjbI3t+bMMcsPcMDcC2joIrg2FufE6tsf+oTY5jxg3Xme7fF23q+dbjlFuD3EOcS51bYbmAgAAAADcLsLnMxGYRiBbP+EbAWr9ZG/IgDX21UFumBs+Zz91wPvEE09sAumhMLcMhlttcg5l3xkYl9tijvlVGfV8c99QkBznU4bnOebYMQAAAADA7SB87pXBaSpD2loEr9GmDmxD9jUVPocMhMtxy+C2FSyHeJ3zyzZlH6E1t7ptjP2ud72rOd8Q45R9lvOv5x79Pvzww835AgAAAAC3i/D5SBEkZ/jb2g8AAAAAcJsJn48w9DQyAAAAAABrwucD5VdNlF8/AQAAAADALuHzTOV3JQueAQAAAADGCZ8BAAAAAFic8BkAAAAAgMUJnwEAAAAAWJzwGQAAAACAxQmfAQAAAABYnPAZAAAAAIDFCZ97Tz75ZPf88893DzzwQHN/LdrfvXt39bO1f45Dx7wojz32WPfCCy90jzzyyOp1zCfmdZ5zO1SMHXOIubT2p1OpWe0qajaXmh1Ozdruu+++7s6dO6vPvrTEXJ577rlVv9F/uT0/F1pj5Vzi2PKYU1B/pp4KNTvcKdcs5efCKX5mAQAACJ97h4ZN0f68wcvcwPWitRb9Q2HQRZlbi1OpWctl12wuNTucmu3LEO4iAq7WOdWfSzl++Zl76Of2Zckw8Dz/fbgoana4U61Zytqd8hwBAIDbS/jcO3RxGcFIhM/nDacidAmtfYfKwCyfEpwbjtchT4jfox7ltvOIeZTzqs855z6nnkvWLBftOa+6DqGee6rDssuuWYrtZbvWNb/smoW8ptmu9f5Ss912V1GzuXJurVqdV9S5fD8NnWO9Pet63s/hlOc4Vv8w5z6LNvVnxHnMuWfn3Gdqttvmutcs5D/MLFk7AACApQife7HIG1oAtsQiNBaD512MxvGtxe6hWvPJba0Fd6k1h1zMDi12DxF9lP3nwrvsO7eV8x/Smu8xWvOo5xrm3huXXbMcr5zb0DW/7JrV82jNtdyuZldTs0PkecQ8W/vPI84lzinOLV+3zi/PvZxDfeyx5tY/xiuvXev6ltvPW6/WPOq5htY86rmW29XsZtQsZB9LzA8AAGBpwudeLARj8ffwww+vfsbisF6oXoRcNA6NE9tjHvWCs97eWhhn3/WxuYjNcwytxXYskusFcYptsa8+rt6eY9VhQrwujy3bxXxzXq3F9GXXLI4bqkPtMmtWv06t+V5mzVo1DHme9RzU7Gpqlttz7JhzaNUnxLbYV9f4GFmjUtYo5vnpT3+6OYcQNSrrFO3ivMbaR/91Dcvtc+s/VIOh+6qeayn7qq9jvX3uPRvjZA2zzdB5RV9qdnNqBgAAcMqEz71clJYLvvgZi8Z6Abi0ekFci4VqueDMhWm5gI3f6z7qBW1onVP83lrQto4vDc2j7Kt1brkALxfq0T7ahewvxy/7T+et2dC5ZX3KvqfGKg31m5asWRxXByc5fuu+nTqPpWqWx7XGj3ZDc677TWp2MTUr25X9x8+PfvSjq59lbVrGajMk5lEfF9tyDlGD/L0eP843lOcV7aJ9ua2U+8sxs/5Zv7n1j9f13LP/sr8U/dU1r/eXx7XmWtYmjyvrEn3k69b40WZozmp2M2oGAABwyoTPvVz8lYvCXOzlgrBsv6ShBWkq5xGL0dacciGdi/Z8XbbLfurFc4w7tNhvLeJLubiOn+Xvub8+PucV4VY5l6xBPbe4Lq25nbdmreNzwf/EE0/sjJn3Rqnsq3YZNcvzK+uV5xTzj/Z1QHFZNYv9Zf1CnlOcQ7SP/nNfuV/NLq9mYaqP0lQt5hjqo5xH1CdeZ23jdV7POC73l8dnTesapTw+jit/z/3R75z657asV/ZV3md5fLk/5lduL8W+HLv8PfZlDcp+s4blPduqa9akvM9yX7k/5lhuT2Wdyt9zv5ptt6eyTuXvuf+iagYAAHDKhM+9oUVlLPJa25dWLzZruVCOAKm1KE7RT7QJ9QK1tdgOrQVxGjqmNDZmeV7lOHVAMDa36Lc1ftl3vS9kn3F8fX7lePVcynlm+1IGAUP3xdC5lGKs89SsnnN5/+b8YlvZb913vS/k3M9Ts/L3ei5D77Oy73J7KcZSs/1xj63Z2Dm3zBlvytC5lDWO36NdjBdt42f5e+w75lxi3lmLeg5z61/Oszymvral8vh6X8hjc27lOdT9ln2V84w55LWpjynnmf2G+jxb1Oz61AwAAOBUCZ975cJvzvalDS12SzGXeqGdciGbc82FddlnbouxymPHxp6z2K3HLvflIrp8qiu21/0OzW1oezhPzbLf8km43Den32gT/bbmdRk1K3/P9rGt7Lt1n1xGzfL3fHqwrFEc0zpnNbv8muXcyrHGHNq+Zehc8nr86I/+6OpnjFG2jdf5e2xvnXN9TVuiTet9G6/n1D/HmPo8K82pW7ap51/2W59fjB1ziPnl8VP3WW5LdZ8t0UbNtuo+W6LNZdcMAADgVAmfe+XCr9w+Z6G5hFxUlgvgUixSYzHbWtTmsfX8c6Gd8x9a0OeCuLXQzv2t2oQcO/5AWKhrFecT862359zyfI+ZW459TM1y/Hp7GLoXSjnfsbEvumZ5XnUQMVTLcBk1y/Fb1y36rc8rqdnl1qyuzZSxGs1VnnO5Pc+xDp9zzuVx8XtrzjG/aFPXL8UxMf9PfvKTe3XOc5uqf/Qx5z6rRR+htS+PjT7jZ90uXk/ds9nH1H1Wbg/RR+yrzzmp2fWqGQAAwCkSPvdai81c6A0tgJc2tOAt5xEL0VxwZ7vcXy9U67bZrly4ZpvWYji1jkuxLY+NBXwsmMt2udiuF/fxuhxzqF2cc3mutWNrFsrFfm7LtlPXvDzv1v7LqFn9Og3VZGr/UjUbquFYTab2xzY1226fsz+2jdUsx6znNmSoxodo1T/7jXmMhc/5e9SoNYehGoYcI/rJmmV/Y8fW9R2qQeu85u6PMfOeiXHiOpX9Dx0bbfO4eB39lOcUxmoytV/Nrl/NAAAATpHwuVcvSkO5wC3bXpRcgJYLzlyslvPIhWm5gI3fWwvw2Fa3K/vK12FsQRv1KRfRIfvPBXOI/urFcT1mzr88Lre15l9uq52nZq151HNtaZ13y0XXLM+zHONUalbPozXXFjW73Jplu3K+0U/87/71mHkeZQ0OlXXM8fJ1Ppnd+tqNhx9+ePUztj/00EOrn2XdSnFcXdcco6xRqz65Lc8v2sYx5XGhvnat61vLvuo28bo1Ztl/ax71XMPc+6wWfajZzagZAADAKRI+93JhF4vCVC8GL0MsOMtx43W9eA25AI/9uS3blurjcqFb7o9zj0Vu/CzblrI+uWDO10ML8NhX9lfPbWpeoe5jyHlqlueRY9bnE+q5z51X9n1RNQutuuV4Yy66ZiFDllSON0TNLr9m9dzq/XW7ObUaU46XY0XN8lyjbvG6nG+MGb/HMWPj5zF5TcprXR/Xun7RJralofrnsansY0i0Ka9JjlWPkfUp25bnkVp1KGsbyj6GqNnNqhkAAMCpET6fmFiUxkI4FsSt/VclF9exGG7tv0pqdjg1O5yaXY4I2M5zLnHsUJh3lTLkjPuotf8qqdnhTrVmAAAAp0b4fGKEb4dTs8Op2eHU7HLEOcRTpceeSxwnsDyMmh3ulGsGAABwSoTPAJyUCBzrrz+IJ6IFfQAAAHC9CJ8XFqFJ+R2NLTflCUWAi1J/lp7i068AAADAOOEzAAAAAACLEz4DAAAAALA44TMAAAAAAIsTPgMAAAAAsDjhMwAAAAAAixM+AwAAAACwOOEzAAAAAACLEz6fuAceeKB7/vnnuyeffLK5HwAAAADgFAmfT9xVhs/PPfdcd+fOne6+++5r7gcAAAAAGCJ8LjzyyCPdCy+80N29e3clfo9trbaXZU74nG1y3um8wbHwGQAAAAA4lvC599hjj60C2zLkjdA1AtgId8u2l+mQ8LmeewTH5wnQhc8AAAAAwLGEz2cyqB0LWrNNhLx1GJ1PTGf4G6+jXfyMAHfqSeQ4LtvUAXgZLJftynkMBdS5vR43g/ZWX3ku5f5S3Vfd/hSeFgcAAAAArp7w+cxYsFzK0DZ+ltsj9C1D1zKQzUA4g+AIo/O4HLcObJ944onN6zyuDH7zuOwr29Thc2jN7dlnn93sHzv3qSefo320KffHawE0AAAAACB87pVPA5cBcWksQC63RfAaAWzdT7wuw9wYcyqozTHrEDhC5QyMs81Q+NwKzEtDoXo93zny3FtzAQAAAABuD+FzIYPkDKGHngYut2fYWga3rW2hDnPnhLtDwfLc8HkoWC7Nne8cY3MBAAAAAG4P4fOADG3r4LYOaiNkrQPaOWFuiN9jW9mmdt7wObbV5xBj5rmVxuZbbi9l/7XWXAAAAACA20P4PCJD3TKALUPj/L0OWk/pyecYI9vl65hbzDHbHPvkc4wXQXN53NhcAAAAAIDbQ/g8IoPUOoCNsDW2588yyA1zw9wIaOsguDYU5sbr2B77h9rkPGLceJ3t8nXdrp5vOUa5PcQ5xLnUtRmaCwAAAABwuwifz0RgGoFs/YRvBKj1k70hA9bYVwe5YW74nP3UAe8TTzyxCaSHwtwyGG61yTmUfWdgXG6LOeZXZdTzzX1DQXKcTxme55hjxwAAAAAAt4PwuVcGp6kMaWsRvEabOrAN2ddU+BwyEC7HLYPbVrAc4nXOL9uUfYTW3Oq2Mfa73vWu5nxDjFP2Wc6/nnv0+/DDDzfnCwAAAADcLsLnI0WQnOFvaz8AAAAAwG0mfD7C0NPIAAAAAACsCZ8PlF81UX79BAAAAAAAu4TPM5XflSx4BgAAAAAYJ3wGAAAAAGBxwmcAAAAAABYnfAYAAAAAYHHCZwAAAAAAFid8BgAAAABgccJnAAAAAAAWJ3wGAAAAAGBxwufek08+2T3//PPdAw880Nxfi/Z3795d/Wztn+PQMS/KY4891r3wwgvdI488snod84l5nefcDhVjxxxiLq396VRqVruKms2lZodTs7b77ruvu3PnzuqzL+VcTrVmLXkezz333N6++Awqz6/8TBo77qrVn+OnQs0Od8o1S/lZdF3e8wAAwNURPvcODU6ifRm8HGNu4HrRWgvwWPTG4jcWwWXbizK3FqdSs5bLrtlcanY4NduXgdjQ5+Qp16yW51KHe/V/BzJgK8/pVEP2nOt5/pt0UdTscKdas5S1O+U5AgAAp0H43Dt0oRdhRP1U3DEi/KgDkGNl+FM+tTdnUR3nEMfF8bktfo96lNvOI+ZRzqs+50OCqyVrlgvonFddh1DPPdUB4GXXLMX2sl3rml92zUJe02zXen+p2W67q6jZXDm3Vq3SVdTsGK3wOT57WvWut+e8zvvZn+Zc8xBzzTahdR1i25L/MDFnzDnzV7PdNte9ZiHfQ0vWDgAAuJmEz71YYA0txlpiQRgLs/MuDOP4WBDGwrC1f67WfHLb0OIxtebQCmeOFX2U/eciuOw7t5XzH9Ka7zFa86jnGubeG5ddsxyvnNvQNb/smtXzaM213K5mV1OzQ+R5xDxb+8Nl1+xYdQ3zdX0PhKj9pz/96Z1x47hoH8eVbQ8155q3ttXHpTnXaI65Y86Zf1KzdbubULOy/RLzAwAAbjbhcy8WV7Hoevjhh1c/Y8E1tOhaUi7ghsaJ7TGPDEmGtrcWqdl3fWwutvMcQyvUiYVna0EcYlvsq4+rtw8t7ON1eWzZLuab82otbC+7ZnHcUB1ql1mz+nVqzfcya9aqYcjzrOegZldTs9yeY8ecQ6s+IbbFvrrGpcusWb19av5xXLZJ2Ve0j4C5Vc/WOUX7qGVrnLn1HzqfbJfjHXLPhuiv7jPNrf+cMefOP0Vfsb3uM9S1GdquZvvHXFXNAAAA5hI+93KBFYuvWITFtvgZi8t8fVGmFnexaCwXhfEzXpeLyfi97qNeXIbWOcXvrUVn6/jS0DzKvlrnlovhmEf2He2jXcj+cvyy/3Temg2dW9an7HtqrNJQv2nJmsVxsS32Zbscv3XfTp3HUjXL41rjR7uhOdf9JjW7mJqV7cr+4+dHP/rR1c+yNi2t2lxWzcpjh+afr2N/3SZe55gxVv6efeY5xrixr5xPfXytPqcQv7fOe+qax3Hl3EN5Xerj43U5Tm1oHvVcp8acO//crmY3q2YAAABzCZ97uRArF1i58KsXZEsbWhymch6xGGzNKReJuejM12W77KdeyMa45WK11FqQluLYrFv5e+6vj895RThUziVrUM8trktrbuetWev4GCvm9sQTT+yMmfdGqeyrdhk1y/Mr65XnFPOP9jHv3FfuL8cqZZ/hPDWL/WX9Qp5TnEO0j/5zX7lfzS6vZmGqj9JULdJl1Sy2z5l/9FPXNueQ90L8jDHyvoljon38Hj9zfx4fck71dUnRx1j94/d6Xnk+ec1/4id+YmeeIdrHcUP3bJ5DvT1N1b+uTWiNOWf+dW3U7ObUDAAAYC7hc29ogReLsbGF31JyMZiL2VouBGNhWS8kS9FPtAnlQjJkH+XCNLQWp2nomNLYmOV5lePUi/WxuUW/rfHLvut9IfuM4+vzK8er51LOM9uX4l6Ie2Lovhg6l1KMdZ6a1XMu79+cXyssKPuu94Wc+3lqVv5ez2XofVb2XW4vxVhqtj/usTUbO+eWOeOly6jZ3Pm35lL2m79H3yFrXf4e7epx5owfxw3Vf+xc4me8rkPB3B7tx8Yv29X7wlj965oPjTln/vX4dbsWNbs+NQMAAJhD+NwrF1tzti+tXCC29oeYSywuW4vAXCDmXHOhXPaZ22Ks8tixsetFdUs9drkvjovj66e66n6H5ja0PZynZtlv66muOf1Gm+i3Na/LqFn5e7aPbWXfrfvkMmqWv0e7+FnWKI5pnbOaXX7Ncm7lWGMOaV+eW2t/OG/N5s6nvtahrF3UJf+gYNk2xs3fY3s9z9DquzRW/zyXsWtehoL1WNl3a15zahPHtepf1mZszDnzr885qNnNqRkAAMAcwufe0MJvatG3lFy8Di3wYsEYi96YT/wsF5B5bD3/XDTm/IcW17k4jf3l9nJ/qzYhx47wJtS1ivOJ+dbb6wXtMXPLsY+pWY5fbw9D90Ip5zs29kXXLM8rfmabMFTLcBk1y/Fb1y36rc8rqdnl1qyuzZSxGtUuo2Zz59+qX84v9kU/UZ84v3gd6uPi99Z5xzExh/qahRxjqP5Zz6lrHr9nrco2efzQ9Yj29TFprP5hzphz519uD9FWzW5OzQAAAKYIn3tlqJHbMtyoF2MXpTWHUM4jF5plu9xfLzrrttmuDGuyTWthmlrHpdiWx+bivGw3tHCN1+WYQ+3inMtzrR1bsxD7hmo2dc3L827tv4ya1a/TUE2m9i9Vs6EajtVkan9sU7Pt9jn7Y9tYzXLMem5Dhmo85LJqNjX/1jyyHtFXbI/QLs4vXmf/+Xv0/clPfnLvngn1nEpz618fm/XJtsfes0PHZf95bjGHVn2mxpw7/5qa3ayaAQAATBE+91oLrFisXeaiKxeDsQjMba2FbiwOY5FYLibj91h0lsfmQrRuV/aVr0O96CxFfWIeMZ/c1lroRn/1ArYeM+dfHpfbWvMvt9XOU7PWPOq5trTOu+Wia5bnWY5xKjWr59Gaa4uaXW7Nsl053+gnvr6kHjPPo6zBmMus2dj8677idfQT4rjorwyfY37vete7NnOK7RE+1/VIMYehec2tf9Yo61Nez9a2+riWPK6cQ26bqv/cMettreNaor2a3YyaAQAATBE+93IxGQutNLUYvAixcCzHjdcxl3JxGeJ1bC8Xv9m2VB+XC8xyf5x7LGrLxWot65OL0HxdL4bj99hWL37ruU3NK9R9DDlPzfI8csz6fEI997nzyr4vqmahVbc5QcFF1yxkcJHK8Yao2eXXrJ5bvb9uN6dW6TJqNmf+ZV2znxgr5P0QbbKvaBOv4/dWf6Wsa55T2cec+pdzC61rnnMs2825DjGnch6H1H/umHPmX1Ozm1UzAACAMcLnExMLvXrReApyUVoutE+Fmh1OzQ6nZoc71ZrVonZ1uHiIOD6uQVyL1v6rEnWP+sd1aO2/Smp2uFOtGQAAwBjh84kRJB1OzQ6nZodTs8Odcs1KUb/6CdJDCCwPp2aHO+WaAQAADBE+A3CrZUheB47PPvvsyQX6AAAAcJ0InxcWT0yV35fYcopPKALcZhlAl5/Vp/7ENgAAAJw64TMAAAAAAIsTPgMAAAAAsDjhMwAAAAAAixM+AwAAAACwOOEzAAAAAACLEz4DAAAAALA44TMAAAAAAIsTPgMAAAAAsDjhMwAAAAAAixM+AwAAAACwOOEzAAAAAACLEz4DAAAAALA44TMAAAAAAAv7hu7/D/YntxrruBR7AAAAAElFTkSuQmCC;" vertex="1" parent="1">
          <mxGeometry x="930" y="300" width="1139.09" height="490" as="geometry" />
        </mxCell>
        <mxCell id="hLcALraoGv34C8EPr2Re-9" value="PUB" style="text;html=1;strokeColor=none;fillColor=none;align=center;verticalAlign=middle;whiteSpace=wrap;rounded=0;" vertex="1" parent="1">
          <mxGeometry x="440" y="230" width="60" height="30" as="geometry" />
        </mxCell>
        <mxCell id="hLcALraoGv34C8EPr2Re-10" value="PUB" style="text;html=1;strokeColor=none;fillColor=none;align=center;verticalAlign=middle;whiteSpace=wrap;rounded=0;" vertex="1" parent="1">
          <mxGeometry x="790" y="250" width="60" height="30" as="geometry" />
        </mxCell>
        <mxCell id="hLcALraoGv34C8EPr2Re-11" value="SUB" style="text;html=1;strokeColor=none;fillColor=none;align=center;verticalAlign=middle;whiteSpace=wrap;rounded=0;" vertex="1" parent="1">
          <mxGeometry x="790" y="170" width="60" height="30" as="geometry" />
        </mxCell>
        <mxCell id="hLcALraoGv34C8EPr2Re-12" value="Leaf Node" style="rounded=1;whiteSpace=wrap;html=1;" vertex="1" parent="1">
          <mxGeometry x="30" y="320" width="120" height="60" as="geometry" />
        </mxCell>
        <mxCell id="hLcALraoGv34C8EPr2Re-14" value="" style="endArrow=classic;startArrow=classic;html=1;rounded=0;entryX=0;entryY=0.5;entryDx=0;entryDy=0;dashed=1;strokeColor=#FF1605;" edge="1" parent="1" source="hLcALraoGv34C8EPr2Re-12" target="hLcALraoGv34C8EPr2Re-1">
          <mxGeometry width="50" height="50" relative="1" as="geometry">
            <mxPoint x="120" y="290" as="sourcePoint" />
            <mxPoint x="170" y="240" as="targetPoint" />
          </mxGeometry>
        </mxCell>
        <mxCell id="hLcALraoGv34C8EPr2Re-16" value="SynchData" style="text;html=1;align=center;verticalAlign=middle;resizable=0;points=[];autosize=1;strokeColor=none;fillColor=none;" vertex="1" parent="1">
          <mxGeometry x="600" y="320" width="80" height="30" as="geometry" />
        </mxCell>
        <mxCell id="hLcALraoGv34C8EPr2Re-17" value="DB" style="text;html=1;strokeColor=none;fillColor=none;align=center;verticalAlign=middle;whiteSpace=wrap;rounded=0;" vertex="1" parent="1">
          <mxGeometry x="610" y="120" width="60" height="30" as="geometry" />
        </mxCell>
      </root>
    </mxGraphModel>
  </diagram>
</mxfile>
